<?xml version="1.0" encoding="utf-8"?>
<!-- Generator: Adobe Illustrator 18.0.0, SVG Export Plug-In . SVG Version: 6.00 Build 0)  -->
<!DOCTYPE svg PUBLIC "-//W3C//DTD SVG 1.1//EN" "http://www.w3.org/Graphics/SVG/1.1/DTD/svg11.dtd">
<svg version="1.1" id="Layer_1" xmlns="http://www.w3.org/2000/svg" xmlns:xlink="http://www.w3.org/1999/xlink" x="0px" y="0px"
	 viewBox="0 -80 640 640" enable-background="new 0 -80 640 640" xml:space="preserve">
<g>
	<path fill="#FFFFFF" d="M134.8,221.6c-3.9,13.7-2.6,16.8,11,24.3C149.8,233,147.4,228,134.8,221.6z"/>
	<path fill="#FFFFFF" d="M179.6,218c-0.2-3.7-2.1-6.6-6.9-7.3c-4.2-0.5-7.9,2.4-8.1,6.3c-0.2,4.4,2.9,6.9,7.3,7.3
		C176.2,224.8,179,222.9,179.6,218z"/>
	<path fill="#FFFFFF" d="M179.6,229.5c-4-0.2-8.1,3.1-7.9,6.8c0.3,4.4,3.4,6.3,6.9,6.6c5.3,0.2,9-2.9,8.9-6.4
		C187.4,232,184.1,229.9,179.6,229.5z"/>
	<path fill="#FFFFFF" d="M246,199.8c-9.5-5.6-19.5-4.4-29.2-0.3c-8.5,3.7-13.4,11-12.4,17.2c1.3,7.4,8.9,12.9,18.7,13.7
		c1-0.2,1.9-0.2,2.9-0.2c8.5-0.2,16.1-2.4,22.4-7.9C256.3,215.4,255.1,205.1,246,199.8z"/>
	<path fill="#FFFFFF" d="M278.9,208.5c4,0,7.4-3.2,7.3-7.3c-0.3-4.5-3.2-6.8-7.4-6.9c-5,0.2-7.3,2.3-7.4,6.4
		C271.2,204.8,274.7,208.5,278.9,208.5z"/>
	<path fill="#FFFFFF" d="M281,214.6c-4.5,0.2-7.3,2.7-7.6,6.9c-0.3,3.9,3.5,7.4,8.2,7.4c4.4-0.3,6.8-3.1,7.3-6.9
		C289.4,218.3,285,214.3,281,214.6z"/>
	<path fill="#FFFFFF" d="M116.4,146.6c-0.8-1.3-3.1-1.9-4.7-2.9c-0.8,1.6-1.8,3.2-3.1,5.3c1.8,3.7,3.4,7.4,5.5,10.8
		c0.8,1.1,3.2,2.1,4.4,1.8s2.4-2.7,2.1-3.9C119.7,153.9,118.2,150.2,116.4,146.6z"/>
	<path fill="#FFFFFF" d="M324.7-5.8c0,5.2,0,9.5,0,14.7c4.2-1,7.7-1.8,11.6-2.9C334.3-0.8,330.3-3.9,324.7-5.8z"/>
	<path fill="#FFFFFF" d="M314.4-5.7c-0.6-0.3-1.1-0.6-1.8-1c-3.4,3.5-7.3,7.3-11.1,11c0.3,0.8,0.8,1.5,1.1,2.3
		c4,0.6,7.9,1.1,11.8,1.9C314.4,3.2,314.4-1.3,314.4-5.7z"/>
	<path fill="#FFFFFF" d="M332.9,17c-7.6-4.4-17.9-4.5-26.9,0C313.2,25.6,326.3,25.6,332.9,17z"/>
	<path fill="#FFFFFF" d="M493.7,243.2c10.2-10.6,10.3-11.9,4-23.4C484.7,229.3,484.2,232.5,493.7,243.2z"/>
	<path fill="#FFFFFF" d="M459.4,209.6c-4,0.3-6.9,2.1-6.9,6.3c0,4.4,2.4,6.9,7.3,7.3c4.2,0.3,7.9-2.7,7.7-6.8
		C467.1,212.2,464.2,210.1,459.4,209.6z"/>
	<path fill="#FFFFFF" d="M0-80.5v641h640v-641H0z M503.2,84.3c3.9-0.5,6.9,2.1,6.9,6c0,3.9-2.7,6.6-6.6,6.1
		c-2.9-0.3-5.3-3.1-7.9-4.5c-0.2-1.1-0.2-2.1-0.2-2.9C497.9,87.2,500.5,84.6,503.2,84.3z M487.5,68.5c4.4,0,8.1,3.7,7.9,7.4
		c0,4-3.7,7.3-8.2,7.3s-7.9-3.2-7.9-7.3C479.4,71.7,482.9,68.5,487.5,68.5z M458.9,62.2c0-3.7,4-6.9,8.2-6.9c4.4,0.2,8.2,4,8.2,7.9
		c-0.2,4.2-4.2,7.7-8.5,7.3C462.5,70.1,458.6,66,458.9,62.2z M435.4,49.4c0.5-4.8,5-8.1,10.5-7.6c5,0.5,8.5,4.4,8.2,9
		c-0.3,5-4.7,8.4-10,7.9C438.9,58.3,435.1,54.1,435.4,49.4z M422.2,29.6c5.6,0.2,9.8,4.4,9.8,9.5c-0.2,5.3-4.7,9.5-10.2,9.5
		c-6-0.2-10.6-4.4-10.5-9.8C411.4,33.2,415.9,29.3,422.2,29.6z M393.7,19c6.1,0.2,11.4,5.3,11,11c-0.5,5.3-5.8,9.5-11.4,9.2
		c-5.6-0.2-10.5-5-10.3-10.3C383,23.5,388,18.8,393.7,19z M362.7,11.2c6,0.2,11,4.7,11.1,10.2c0,5.8-4.5,10-11,10
		s-11.6-4.7-11.4-10.3C351.6,15.6,356.7,11.1,362.7,11.2z M293.6-41.6c5.8,1.3,11.6,2.7,18.4,4.2c-2.7-7.9-5.2-15.1-7.9-22.9
		c10.2,0,19.5,0,30,0c-2.3,7.4-4.4,14.7-6.9,22.9c6.4-1.6,12.1-2.9,18.2-4.4c0,7.6,0,14.7,0,22.6c-7.1-2.1-13.5-4.2-20.6-6.4
		c0,4.2,0,7.9,0,12.1c7.3,1.6,13.1,5.3,16.8,11.6c6.6,11,2.1,24.3-10.2,30.1c-12.1,6-28.5,1.3-34.8-9.5C290.2,8,295-5.2,306.9-10.8
		c8.9-4.2,9.3-5,7.1-14.7c-6.6,2.1-13.1,4-20.5,6.3C293.6-27,293.6-33.9,293.6-41.6z M319.4,72.2c-4.8,0.2-9.2-3.4-9.5-7.4
		c-0.2-4,4.2-8.1,8.9-8.1c4.5-0.2,8.9,3.7,8.9,7.7C327.6,68.6,323.9,72,319.4,72.2z M326.6,82c-0.5,4-2.9,6.4-7.4,6.3
		c-4.4-0.2-7.3-2.4-7.1-6.6c0.2-4,3.1-6.1,6.9-6.1C323.4,75.5,326,77.8,326.6,82z M319.2,53.1c-6,0-10.5-4.5-10.2-10.2
		c0.2-5.2,5-9.2,10.6-9c5.3,0.3,10.2,5,10,10S324.7,53.3,319.2,53.1z M274.1,10.3c5.8,0,11,4.8,10.8,10.2
		c-0.2,5.5-5.3,10.5-10.8,10.5c-5.8-0.2-11.4-5.5-11.3-10.8C262.9,14.8,268.1,10,274.1,10.3z M244.7,17.9c6-0.2,11.1,4.4,11.3,9.8
		c0,5.3-4.7,10-10.5,10.2c-5.8,0.2-11.3-4.5-11.3-10C234.1,22.5,239.1,17.9,244.7,17.9z M216.7,27.8c5.8,0,10.6,4.2,10.8,9.7
		c0.2,5.3-4,9.5-9.8,9.5c-6.1,0.2-10.8-4-11-9.3C206.5,32.4,211.1,28.2,216.7,27.8z M193,40.3c5.3-0.2,10,3.4,10.2,8.1
		c0.3,5-3.7,9-8.9,9.2c-5,0.2-9.5-3.7-9.8-8.4C184.1,44.4,188.2,40.6,193,40.3z M171.1,54c4.4-0.2,8.5,3.4,8.9,7.4
		c0,4.2-3.9,7.6-8.5,7.6c-4.5,0-8.5-3.4-8.4-7.6C163,57.5,166.7,54.1,171.1,54z M152.5,67.2c4.5,0,8.2,3.4,8.4,7.3
		c0,3.7-3.9,7.3-8.1,7.4c-4.4,0.2-8.2-3.2-8.2-7.3C144.5,70.6,148,67.2,152.5,67.2z M129.7,86.7c2.4-1.3,5.2-3.7,7.9-3.7
		c4.2-0.2,7.1,2.7,6.4,6.8c-0.5,3.7-3.7,6.3-7.4,5.2c-2.7-0.8-4.7-3.7-7.1-5.6C129.3,88.3,129.5,87.5,129.7,86.7z M162.1,440.7
		L160,282.2l159.9,100.6l1.9,158.6L162.1,440.7z M162.2,273.8l99.3-24.5l136,77.4l-74.8,49L162.2,273.8z M278.9,249.6h114.7
		l84.8,22.9l-70.9,47.1L278.9,249.6z M328.7,541.2l-2.1-158.4L483.9,278l1.9,158.6L328.7,541.2z M533.5,139.5
		c-0.8,2.3-1.1,5-1.1,7.4c0.3,8.5-2.1,16.3-9.5,22.1c-1.5,1.1-2.7,2.7-3.4,4.4c-1.8,3.4-2.9,7.3-5,10.5
		c-9.2,14.2-11.4,28.8-5.2,44.3c1.8,4.4,0.3,8.5-2.9,12.4c-6.3,7.1-12.7,14.2-18.7,21.4c-2.1,2.7-4,2.7-6.9,1.5
		c-38.5-15.3-79.1-22.4-121-25.3c-38-2.7-75.9-1.8-113.6,3.4c-29.7,4-59.1,9.8-86.4,21.4c-1.5,0.6-4.4,0.3-5.6-0.6
		c-8.5-6.3-17.2-12.7-25.1-19.5c-2.4-2.1-4-6-4.2-9.2c-0.2-6,0.2-12.1,1.5-18.2c1.8-8.9,0-17.1-3.2-25.3c-1.6-4-3.1-8.1-4.2-12.1
		c-1.6-5.3-3.7-10-8.5-14c-7.6-6.3-8.5-14.3-6-23.4c0.6-2.1,0.8-4.7,0-6.8c-2.4-6-5.2-12.6-7.9-20.3c11.4-2.7,22.6-5,34.7-7.9
		c-4.5,11.4-8.5,21.9-12.7,32.4c0.8,0.5,1.5,1.1,2.1,1.6c7.1-5.3,14.2-10.5,21.8-16.3c3.1,14.5,6.3,28.8,9.3,43.7
		c-8.2-3.1-15.6-5.8-23.7-8.5c0.2,14.3,15.1,32.4,30.5,37.6c15.5,5.2,36.1,0.3,46.3-10.6c5.8-6.4,8.2-13.7,6.9-22.1
		c-1.9-11.1-10.6-17.6-22.2-16.3c-10,1.1-16.4,10.5-15,21.1c0.2,1.9,0.8,3.9,1.1,6.3c-10.2-1.3-14.3-7.6-16.6-15
		c-4-13.1-1.8-25.1,9.5-34.2c10.2-8.2,22.2-9.2,33.5-4c-1-7.7-2.7-16-2.7-24.3c-0.2-8.9,5.3-16.3,10.6-23.9
		c19.2,12.2,24.8,28.4,18.5,49.2c10.5-8.2,20.6-15.1,33.7-8.5c9.3,4.8,14.3,12.9,13.7,22.7c-0.3,9.3-6,16-15,21.1
		c-0.2-2.3-0.3-4-0.6-5.5c-1.1-6.6-7.3-11.6-14.3-12.2c-8.5-0.8-14,2.1-16.8,9.3c-2.7,6.9-2.1,13.4,2.7,19.3c8.2,10.3,19.8,15,33,15
		c8.9,0,18.1-1.8,26.3-4.8c15-5.5,21.4-17.6,18.9-33.7c-4.4,1.8-8.4,3.4-12.4,5c-4,1.8-7.9,3.4-12.7,5.3c-0.6-14.7-1.1-28.8-1.9-44
		c8.9,5,16.6,9.2,24.7,13.5c0.5-0.3,1-0.8,1.6-1.1c-4.4-10.3-8.9-20.6-13.4-31.6c15.1,0,29.8,0,44.8,0c-4,10.8-8.1,21.4-12.1,32.1
		c0.3,0.3,0.8,0.8,1.1,1c7.7-4.5,15.5-9.2,23.4-13.7c0,14.3,0,28.7,0,43.8c-8.4-3.7-16-6.9-23.5-10.2c-2.7,17.7,4,30.8,18.4,36.4
		c16.6,6.4,40.1,1.9,50.1-9.8c4.2-5,5.8-10.3,5.3-16.4c-0.3-6.1-4.4-11.4-10.2-13.1c-6.4-1.8-11.6-0.2-16.1,5.5
		c-1.9,2.3-3.4,4.8-5.3,7.3c-11.4-9-13.4-25.9-4.4-36.9c5.5-6.6,13.4-8.9,21.4-6.9c7.1,1.8,13.4,6.4,20.1,9.8
		c-3.7-18.7,3.7-34,20.5-46.3c15.6,16.6,13.4,34,3.1,53c2.7-1.8,4-2.4,5.3-3.2c10.5-6.3,21.4-6,30.9,1.3c9.5,7.3,12.4,17.9,7.3,28.4
		c-5,9.8-12.9,17.1-24.3,21.8c1.1-4.4,2.1-8.2,2.7-12.1c1.3-7.4-1.9-12.9-8.2-14.5c-7.7-2.1-14,0.8-17.6,7.9
		c-8.2,16.4-2.1,31.4,16.3,37.9c6.9,2.4,14.7,4,22.1,4c16,0,27.9-7.3,34.3-20.8c2.9-6,5.2-12.2,6.8-19.5c-8.9,3.1-17.4,6.1-26.9,9.3
		c4.5-15.8,8.9-31.1,13.7-47.9c7.3,7.1,13.5,13.1,19.8,19c0.3-0.2,0.8-0.3,1.1-0.6c-1.1-10.2-2.4-20.5-3.7-32.1
		c10.8,2.3,20.6,4.4,31.6,6.6C539.8,122.8,536.6,131.1,533.5,139.5z"/>
	<path fill="#FFFFFF" d="M453.3,228.7c-4.5,0.3-7.3,3.1-7.4,7.1c-0.5,3.5,3.9,7.1,8.9,6.9c3.9-0.5,6.4-2.9,6.8-7.1
		C461.7,231.9,457.5,228.3,453.3,228.7z"/>
	<path fill="#FFFFFF" d="M516.9,162.9c1,0.3,3.1-0.3,3.7-1.1c2.1-3.5,3.9-7.3,6.1-11.1c-1.3-2.3-2.1-4-3.1-5.6c-1.8,1-4.4,1.6-5,3.1
		c-1.8,3.7-2.7,7.9-3.7,11.8C514.8,160.6,516,162.6,516.9,162.9z"/>
	<path fill="#FFFFFF" d="M420.9,200.6c-10-5.2-20.5-6.1-30.8-0.8c-9.3,4.8-11,14.7-3.7,21.8c6.1,6.3,14.2,8.7,22.7,9
		c1.9-0.2,3.4-0.2,5-0.2c8.5-1.1,15.5-6.3,16.9-12.7S428.8,204.6,420.9,200.6z"/>
	<path fill="#FFFFFF" d="M354.7,214.3c-4.7,0.2-7.3,2.9-7.3,7.1c-0.3,4,3.2,7.1,7.7,7.1c4.4,0,8.1-3.4,7.9-7.3
		C362.9,217.5,359,214,354.7,214.3z"/>
	<path fill="#FFFFFF" d="M319.7,140.7c3.7,0.6,6.6-2.3,6-6c-1-2.4-3.5-4.5-5.2-6.6c-1,0-1.9,0-2.9,0c-1.6,2.3-4.5,4.8-4.2,6.9
		C313.9,137.3,317.1,140.3,319.7,140.7z"/>
	<path fill="#FFFFFF" d="M357.4,194.3c-4.7-0.2-7.3,2.4-6.9,6.9c0.2,4.4,2.9,6.8,7.6,6.9c4,0.3,7.3-3.2,7.3-7.6
		C364.6,196.9,362.2,194.5,357.4,194.3z"/>
	<path fill="#FFFFFF" d="M318.5,187.7c-4,6.3-7.3,11.3-10.5,16.3c-0.3,0.8-0.5,1.9-0.2,2.4c3.5,5.2,7.1,10.3,10.3,15.6
		c0.8-0.2,1.6-0.2,2.3-0.2c3.4-5.2,6.8-10.2,10-15.3c0.3-0.6,0.3-1.9-0.2-2.4C326.6,199,323.1,194,318.5,187.7z"/>
</g>
</svg>
