<?xml version="1.0" encoding="utf-8"?>
<!-- Generator: Adobe Illustrator 18.0.0, SVG Export Plug-In . SVG Version: 6.00 Build 0)  -->
<!DOCTYPE svg PUBLIC "-//W3C//DTD SVG 1.1//EN" "http://www.w3.org/Graphics/SVG/1.1/DTD/svg11.dtd">
<svg version="1.1" id="Layer_1" xmlns="http://www.w3.org/2000/svg" xmlns:xlink="http://www.w3.org/1999/xlink" x="0px" y="0px"
	 viewBox="335 0 198 560" enable-background="new 335 0 198 560" xml:space="preserve">
<path fill="#FBB03B" d="M484.1,454.3c-0.8,0.4-1.7,0.8-2.6,1.2c0.2-4.5-3.7-4.9-6.5-6.4c-3.4-0.4-3.7-3.1-3.7-5.6
	c0.3-11.6-0.1-23.2-0.1-34.8c0.1-16,0.1-32.1-0.2-48.1c0-2.1-1.2-127.2-1.6-144.1c-0.8-15.4,13.4-8.4,14.6-7c0,2.2,0,4.8,0,7.4
	c0.1,14.1,0.2,195.1,0.2,196.3C484.2,423.7,483.9,453.5,484.1,454.3z"/>
<g id="_x35_4082J_1_">
	<g>
		<path fill="#1B1C1C" d="M472.4,468.7c0,0-1.8-2.2-4.9-5c-7.8-1.8-16.6-3.8-25.5-6.1c-6.8-1.7-13.7-3.2-20.2-5.8
			c-9.3-3.7-17.4-9.2-22.6-18.2c-3.6-6.2-5.3-12.9-5.9-19.8c-0.9-10.3-1.5-20.6-2.3-30.9c-0.5-7.1-1.1-14.2-1.7-21.2
			c-0.6-6.9-1.2-13.8-1.8-20.8c0-0.6,0-1.3-0.3-1.6c-3.4-4.8-13.3-154.4-13.8-161.3c-1-13.1-2-26.2-3.1-39.3c0-0.7-0.4-1.4-0.7-2.4
			c-1.3-0.2-2.5-0.4-4.2-0.7c-0.4-1.3-1.3-2.7-1.4-4.2c-0.8-10.9-1.4-21.8-2-32.6c-0.3-5.4-0.4-10.8-1.1-16.1
			c-0.4-3.9,0.4-7.2,2.5-10.3c5.2,3.5,9.8,7.8,15.4,10.8c9.2,5,12.8,18.7,7.2,27.4c-1.5,2.3-2.1,4.8-2.4,7.5
			c-0.5,4.1-0.2,8.2-0.7,12.3c-0.2,1.9,0.6,3.7,2.1,5.1c0.3,0.2,0.7,0.4,1,0.7c1,0.8,2.2,1.2,3.5,1.6c1.7-0.2,3.4-3.4,5.2-0.2
			c0.2,3.3,0.3,6.7,0.8,10c0.8,5.1,6,11.9,12.7,12.3c18.3,1,42.2,3,60.5,4.6c0.7-0.6,1.3-1.1,1.8-1.6c1.7,0.8,5.4,1.4,6.9,2.1
			c1,2.7,2.5,17.9,2.3,19.4c0,0.3-2.8,1.6-3.3,1.7c-7.4-0.8-20.6-1.5-28-2.6c-14.5-2.3-29.2-3.4-43.8-4.5c-3.4-0.2-5,1.2-5.2,5
			c-0.2,5.3,0.1,25.5,0.1,25.5s-2.2,1.5-3.2,3.4c1.7,9.5,1.7,19.8,2.4,30c0.3,5.3,3,96.6,3.4,99.6c-4.6,2.3,2.5,43.5,3,51.4
			c0.5,8.2,1.5,27.4,3,28.2c0.6,0.7,2,1.5,2.3,2.3c2.7,8.4,9.3,12.2,17.1,14.1c12.1,2.9,24.2,5.6,36.3,8.9c3,0.8,8.4-0.9,8.4-0.9
			l6.6,6.6c0,0,1.3-1.6,2.4-0.8c0.3,0.9,0.9,1.7,0.9,2.6c0.1,4.4,1.6,10.9,0,13C480.8,470.1,472.4,468.7,472.4,468.7z"/>
		<path fill="#808080" d="M482.4,454.8c-0.8,0.4-13-4.9-12.9-7.5c0.3-11.6-0.2-26.5-0.2-38.2c0.1-16,0.1-32.1-0.2-48.1
			c0-2.1-1.2-127.2-1.6-144.1c-0.1-4.3,0.3-13,1.4-17.2c1.1-4.4,3.1-3.5,2.3-14c-0.1-1.5,6.6-0.2,6.6-0.2s0,19.2,0.5,21.3
			c0.5,0.6,2.6,1.5,3.8,3c0,2.2,0,4.8,0,7.4c0.1,14.1,0.3,28.2,0.4,42.3C482.4,270,482.2,454,482.4,454.8z"/>
		<path fill="#333333" d="M390.2,139.5c0.6-0.7,3.4-0.8,4.7-2.7c-0.1-2.8,1.9-22.1,5.8-26c1.7,0,14.8-0.7,18-2.5
			c1.9-1.1,7.2-6.4,8.6-6.9c9,2.4,15.2-1.2,19-10c2.5,0.2,4.9,0.3,7.3,0.6c3.2,0.4,6.4,0.4,9.1-1.7c2.8-2.2,5.7-4.5,8.6-6.7
			c3.6,0,7.3,0,10.6,0c5.8-6,6.7-19.4,3.3-25.7c-3.3-6.3-8-11.2-14-15.1c-6.5-4.2-13.2-6.1-20.7-4.9c-9.1,1.4-17.5,4.9-25.8,8.6
			c-11.5,5.1-22.5,11.3-33,18.3c-4,2.7-8.1,5.5-13.4,5.6c-5.3-2.2-10.5-3.3-14.8,2c0.2,1,26.3,31.3,22.4,36.6
			c-2.8,3.8-4.4,21.8-4.6,21.8C381.2,132.7,387.9,138.8,390.2,139.5z"/>
		<path fill="#222A2C" d="M455.9,156.9c-2-1.5-0.4-2.7,0.5-3.5c1.2-1.2,2.7-2.1,4.4-3.4c1.8,0.3,3.3,1.2,5.3,2.8
			c0.2-1.7,0.3-1.8,0.5-3.7c1.6-0.1,6.3-0.6,6.3-0.6s1,1.8,1.4,3.7c0.1,0.4,2.2-4.1,3-5.3c1.4,0.2,6.4,1.4,7.9,3
			c-2.7,4.4-4.8,10.8-7.8,15.7c-5.7-0.5-10.7-1.3-11.5-0.5C464.6,164.4,456.4,157,455.9,156.9z"/>
		<path fill="#222A2C" d="M399.6,210.1c0.7,13,1.5,26.1,2.2,39.2c0.7,10.5,1.5,21,2.2,31.5c1,13.6,1.9,27.2,2.8,40.7
			c0.4,6.2,0.7,19.6,0.9,20c2.8,4,0.7,7-2,9.9c-1.2,1.3-2.1,2.8-2.6,3.4c0,2.6-0.2,4.5,0,6.3c0.4,3.1,6.3,60.2,6.6,62.6
			c-0.5,0.2-1.8-0.3-2.4-0.7c-0.3-0.7-1.4-11.1-1.7-15.7c-0.4-5.4-1-10.7-1.4-16.1c-0.3-3.8-0.1-7.6-0.7-11.3
			c-0.2-1.6-0.1-3.7-2.1-5c-1.1-0.7-1.3-2.7-1.6-3.3c0.2-2.9-7.2-26.5,1.2-28.2c1.3-0.2,0.9-2.4,0.8-3.6
			c-0.9-14.4-5.5-79.1-6.8-81.1c1.2-0.9,3.2-17.6,2.7-25.1c-0.5-7.5-1.2-15-1.8-23C397,210.3,398.3,210.2,399.6,210.1z"/>
		<path fill="#1B1C1C" d="M451.3,51.8c-0.1-0.1-0.3-0.3-0.4-0.4l0,0C451,51.5,451.1,51.6,451.3,51.8L451.3,51.8z"/>
		<path fill="#1B1C1C" d="M409.7,88.9C409.6,88.8,409.4,88.6,409.7,88.9C409.4,88.6,409.6,88.8,409.7,88.9L409.7,88.9z"/>
		<path fill="#1B1C1C" d="M409.7,88.9C409.8,89.1,410,89.2,409.7,88.9C410,89.2,409.8,89.1,409.7,88.9L409.7,88.9z"/>
		<path fill="#1B1C1C" d="M469.8,335.6"/>
		<path fill="#222A2C" d="M457.5,53.6c-0.1,0.1-0.3,0.3,0.2-0.3C457.1,53.9,457.3,53.7,457.5,53.6L457.5,53.6z"/>
		<path fill="#222A2C" d="M407,87.2C406.9,87.3,406.7,87.5,407,87.2C406.7,87.4,406.9,87.3,407,87.2L407,87.2z"/>
	</g>
</g>
<path fill="#222A2C" d="M397.5,181.8"/>
</svg>
