<?xml version="1.0" encoding="utf-8"?>
<!-- Generator: Adobe Illustrator 17.1.0, SVG Export Plug-In . SVG Version: 6.00 Build 0)  -->
<!DOCTYPE svg PUBLIC "-//W3C//DTD SVG 1.1//EN" "http://www.w3.org/Graphics/SVG/1.1/DTD/svg11.dtd">
<svg version="1.1" id="Layer_0_xA0_Image_1_" xmlns="http://www.w3.org/2000/svg" xmlns:xlink="http://www.w3.org/1999/xlink"
	 x="0px" y="0px" viewBox="0 0 790 94" enable-background="new 0 0 790 94" xml:space="preserve">
<g>
	<path fill="#FFFFFF" d="M155.9,14.2c0,0.6,0,1,0,1.7c-19.9,0-39.8,0-59.8,0c0-0.6,0-1,0-1.7C116,14.2,135.9,14.2,155.9,14.2z"/>
	<path fill="#FFFFFF" d="M445.9,14.2c0,0.6,0,1.1,0,1.7c-20,0-39.8,0-59.8,0c0-0.6,0-1.1,0-1.7C406.1,14.2,425.9,14.2,445.9,14.2z"
		/>
	<path fill="#FFFFFF" d="M525.9,14.2c0,0.6,0,1.1,0,1.7c-20,0-39.9,0-59.8,0c0-0.6,0-1.1,0-1.7C486.1,14.2,506,14.2,525.9,14.2z"/>
	<path fill="#FFFFFF" d="M545.9,71.2c0,0.6,0,1,0,1.7c-16.6,0-33.2,0-49.8,0c0-0.6,0-1,0-1.7C512.7,71.2,529.3,71.2,545.9,71.2z"/>
	<path fill="#FFFFFF" d="M395.9,71.2c0,0.6,0,1.1,0,1.7c-16.6,0-33.2,0-49.8,0c0-0.6,0-1.1,0-1.7C362.7,71.2,379.3,71.2,395.9,71.2z
		"/>
	<path fill="#FFFFFF" d="M395.9,90.2c0,0.6,0,1.1,0,1.7c-16.6,0-33.2,0-49.8,0c0-0.6,0-1.1,0-1.7C362.7,90.2,379.3,90.2,395.9,90.2z
		"/>
	<path fill="#FFFFFF" d="M496.1,91.8c0-0.6,0-1.1,0-1.7c16.6,0,33.2,0,49.8,0c0,0.6,0,1.1,0,1.7C529.3,91.8,512.7,91.8,496.1,91.8z"
		/>
	<path fill="#FFFFFF" d="M375.9,52.2c0,0.6,0,1.1,0,1.7c-6.6,0-13.2,0-19.8,0c0-0.6,0-1.1,0-1.7C362.7,52.2,369.3,52.2,375.9,52.2z"
		/>
	<path fill="#FFFFFF" d="M155.9,52.2c0,0.6,0,1,0,1.6c-6.6,0-13.1,0-19.8,0c0-0.6,0-1,0-1.6C142.7,52.2,149.2,52.2,155.9,52.2z"/>
	<path fill="#FFFFFF" d="M75.9,52.2c0,0.6,0,1.1,0,1.7c-6.6,0-13.2,0-19.8,0c0-0.6,0-1.1,0-1.7C62.7,52.2,69.3,52.2,75.9,52.2z"/>
	<path fill="#FFFFFF" d="M515.9,33.2c0,0.6,0,1,0,1.7c-6.6,0-13.2,0-19.8,0c0-0.6,0-1,0-1.7C502.7,33.2,509.3,33.2,515.9,33.2z"/>
	<path fill="#FFFFFF" d="M396.1,34.8c0-0.6,0-1.1,0-1.6c6.7,0,13.2,0,19.8,0c0,0.6,0,1.1,0,1.6C409.2,34.8,402.7,34.8,396.1,34.8z"
		/>
	<path fill="#FFFFFF" d="M146,33.1c0,1.1,0,1.4,0,1.4c-6.5,0.3-13.1,0.5-19.7,0.8c-0.2-0.8-0.3-1.3-0.4-2.2
		C132.7,33,139.3,32.9,146,33.1z"/>
	<path fill="#FFFFFF" d="M745.9,14.2c0,0.6,0,1,0,1.7c-6.6,0-13.2,0-19.8,0c0-0.6,0-1,0-1.7C732.7,14.2,739.3,14.2,745.9,14.2z"/>
	<path fill="#FFFFFF" d="M686.1,15.8c0-0.6,0-1.1,0-1.7c6.6,0,13.2,0,19.8,0c0,0.6,0,1.1,0,1.7C699.3,15.8,692.7,15.8,686.1,15.8z"
		/>
	<path fill="#FFFFFF" d="M615.9,14.2c0,0.6,0,1.1,0,1.7c-6.7,0-13.2,0-19.8,0c0-0.6,0-1.1,0-1.7C602.7,14.2,609.3,14.2,615.9,14.2z"
		/>
	<path fill="#FFFFFF" d="M546.1,15.8c0-0.6,0-1,0-1.6c6.6,0,13.1,0,19.8,0c0,0.6,0,1,0,1.6C559.3,15.8,552.8,15.8,546.1,15.8z"/>
	<path fill="#FFFFFF" d="M315.8,14.1c6.9,0,13.4,0,19.9,0c0.1,0.5,0.2,1,0.3,1.7c-6.7,0-13.2,0-19.9,0C316.1,15.4,316,15,315.8,14.1
		z"/>
	<path fill="#FFFFFF" d="M276.1,15.8c0-0.6,0-1.1,0-1.7c6.5,0,13,0,19.7,0c0.1,0.4,0.2,0.9,0.3,1.7
		C289.2,15.8,282.7,15.8,276.1,15.8z"/>
	<path fill="#FFFFFF" d="M236.1,15.8c0-0.6,0-1.1,0-1.7c6.6,0,13.2,0,19.8,0c0,0.6,0,1.1,0,1.7C249.3,15.8,242.7,15.8,236.1,15.8z"
		/>
	<path fill="#FFFFFF" d="M195.9,14.2c0,0.6,0,1.1,0,1.7c-6.6,0-13.2,0-19.8,0c0-0.6,0-1.1,0-1.7C182.7,14.2,189.3,14.2,195.9,14.2z"
		/>
	<path fill="#FFFFFF" d="M56.1,15.8c0-0.6,0-1.1,0-1.7c6.6,0,13.2,0,19.8,0c0,0.6,0,1.1,0,1.7C69.3,15.8,62.7,15.8,56.1,15.8z"/>
	<path fill="#FFFFFF" d="M35.9,14.2c0,0.6,0,1.1,0,1.7c-6.6,0-13.2,0-19.8,0c0-0.6,0-1.1,0-1.7C22.7,14.2,29.3,14.2,35.9,14.2z"/>
	<path fill="#FFFFFF" d="M124.3,72.2c-2.8-1.2-3.1-4.2-4.3-6.6c-1.2-2.4-2.6-4.8-4-7.4c1,0,1.8,0,2.7,0c2.1,4.3,4.3,8.8,6.6,13.3
		C124.9,71.7,124.6,71.9,124.3,72.2z"/>
	<path fill="#FFFFFF" d="M145.7,72.4c-4.5-1.2-4.3-4.5-5.6-6.7c-1.4-2.4-2.6-4.8-4-7.4c0.9,0,1.6,0,2.6,0
		C140.7,62.4,143,66.9,145.7,72.4z"/>
	<path fill="#FFFFFF" d="M155.6,58.1c1.4,0,2,0,2.9,0c2.2,4.3,4.4,8.8,6.7,13.3c-1.8,1.4-2.7,0-3.2-1c-1.8-3.5-3.4-7.2-5.1-10.8
		C156.8,59.2,156.3,58.9,155.6,58.1z"/>
	<path fill="#FFFFFF" d="M176,58.2c1,0,1.8,0,2.6,0c2.1,4.4,4.3,8.9,6.6,13.4c-2.1,1-2.6-0.3-3.2-1.4c-1.7-3.4-3.3-6.9-5-10.3
		C176.7,59.3,176.4,58.8,176,58.2z"/>
	<path fill="#FFFFFF" d="M196,58.2c1,0,1.8,0,2.6,0c2.1,4.4,4.3,8.8,6.6,13.4c-2.1,1-2.6-0.3-3.2-1.4c-1.7-3.4-3.3-6.9-5-10.3
		C196.7,59.3,196.4,58.8,196,58.2z"/>
	<path fill="#FFFFFF" d="M225.2,71.5c-3.9-0.4-3.9-3.6-5.2-5.9c-1.3-2.4-2.6-4.8-4-7.4c0.9,0,1.7,0,2.6,0
		C220.7,62.5,223,67,225.2,71.5z"/>
	<path fill="#FFFFFF" d="M236,58.1c1.1,0,1.8,0,2.7,0c2.2,4.4,4.4,8.9,6.9,14.1c-4.5-1-4.2-4.5-5.6-6.8
		C238.6,63.1,237.4,60.7,236,58.1z"/>
	<path fill="#FFFFFF" d="M265.3,71.8c-3.4,0.8-3.3-2.1-4.2-3.3c-1.2-1.5-1.7-3.6-2.5-5.4c-0.8-1.6-1.6-3.2-2.5-4.9c1,0,1.7,0,2.6,0
		C260.8,62.5,263,67,265.3,71.8z"/>
	<path fill="#FFFFFF" d="M276,58.2c1,0,1.8,0,2.6,0c2.1,4.4,4.3,8.9,6.6,13.4c-2.1,1-2.6-0.3-3.2-1.4c-1.7-3.4-3.3-6.9-5-10.3
		C276.7,59.3,276.4,58.8,276,58.2z"/>
	<path fill="#FFFFFF" d="M296.1,58.2c0.9,0,1.6,0,2.6,0c2.1,4.3,4.3,8.8,6.6,13.3c-2,1.1-2.6-0.2-3.2-1.3c-1.4-2.7-2.7-5.5-4-8.3
		C297.4,60.7,296.8,59.5,296.1,58.2z"/>
	<path fill="#FFFFFF" d="M315.6,58.1c1.4,0,2.1,0,2.9,0c2.2,4.4,4.4,8.9,6.7,13.4c-1.8,1.3-2.7-0.1-3.2-1.1
		c-1.8-3.6-3.4-7.2-5.1-10.8C316.8,59.1,316.3,58.8,315.6,58.1z"/>
	<path fill="#FFFFFF" d="M95.9,58c1.2,0,1.9,0,2.6,0c2.2,4.5,4.4,9,6.7,13.5c-2,1.1-2.6-0.2-3.2-1.3c-1.4-2.9-2.7-5.8-4.1-8.7
		C97.4,60.3,96.7,59.3,95.9,58z"/>
	<path fill="#FFFFFF" d="M76,58c1.1,0,1.8,0,2.6,0c2.2,4.4,4.4,8.9,6.7,13.4c-2,1.3-2.6-0.2-3.2-1.2c-1.4-2.7-2.7-5.5-4-8.2
		C77.4,60.8,76.8,59.6,76,58z"/>
	<path fill="#FFFFFF" d="M56,58c1.1,0,1.8,0,2.5,0c2.2,4.4,4.4,8.9,6.7,13.4c-1.9,1.3-2.6-0.1-3.2-1.2c-1.4-2.7-2.7-5.5-4-8.2
		C57.4,60.8,56.8,59.6,56,58z"/>
	<path fill="#FFFFFF" d="M45.3,71.8c-3.3,0.7-3.3-2.1-4.2-3.3c-1.2-1.5-1.7-3.6-2.5-5.4c-0.8-1.6-1.6-3.2-2.5-4.9c0.9,0,1.7,0,2.6,0
		C40.8,62.5,43,67,45.3,71.8z"/>
	<path fill="#FFFFFF" d="M16,58.1c1.1,0,1.8,0,2.7,0c2.2,4.4,4.4,8.9,6.9,14.1c-4.5-1-4.2-4.5-5.6-6.8C18.6,63.1,17.4,60.7,16,58.1z
		"/>
	<path fill="#FFFFFF" d="M705.2,52.5c-3.9-0.4-3.9-3.6-5.2-5.9c-1.3-2.4-2.6-4.8-4-7.4c0.9,0,1.7,0,2.6,0
		C700.7,43.5,703,48,705.2,52.5z"/>
	<path fill="#FFFFFF" d="M676,39c1.2,0,1.8,0,2.6,0c2.2,4.5,4.4,9,6.7,13.5c-2,1.2-2.6-0.2-3.2-1.3c-1.4-2.7-2.7-5.5-4-8.3
		C677.4,41.7,676.8,40.6,676,39z"/>
	<path fill="#FFFFFF" d="M635.6,53.3c-4.5-0.9-4.3-4.3-5.6-6.5c-1.5-2.3-2.6-4.9-4-7.6c0.7-0.1,1.4-0.2,2.4-0.3
		C630.7,43.4,632.9,47.9,635.6,53.3z"/>
	<path fill="#FFFFFF" d="M578.6,39.2c2.1,4.3,4.3,8.8,6.6,13.4c-2,1.1-2.6-0.2-3.2-1.4c-1.4-2.7-2.7-5.5-4-8.3
		c-0.6-1.2-1.2-2.4-1.9-3.7C576.9,39.2,577.7,39.2,578.6,39.2z"/>
	<path fill="#FFFFFF" d="M565.7,53.4c-4.5-1.2-4.3-4.5-5.6-6.7c-1.4-2.4-2.6-4.8-4-7.4c0.9,0,1.6,0,2.6,0
		C560.7,43.4,563,47.9,565.7,53.4z"/>
	<path fill="#FFFFFF" d="M545.6,53.3c-4.5-0.9-4.3-4.3-5.6-6.5c-1.5-2.3-2.6-4.9-4-7.6c0.7-0.1,1.4-0.2,2.4-0.3
		C540.7,43.4,542.9,47.9,545.6,53.3z"/>
	<path fill="#FFFFFF" d="M515.7,39.1c1.3-0.1,1.9-0.1,2.8-0.1c2.2,4.4,4.5,8.9,6.7,13.4c-1.8,1.5-2.7,0-3.1-1
		c-1.8-3.5-3.4-7.2-5.1-10.8C516.8,40.2,516.4,39.9,515.7,39.1z"/>
	<path fill="#FFFFFF" d="M495.6,39.1c1.4,0,2,0,2.9,0c2.2,4.3,4.4,8.8,6.7,13.3c-1.8,1.4-2.7,0-3.2-1c-1.8-3.5-3.4-7.2-5.1-10.8
		C496.8,40.2,496.3,39.9,495.6,39.1z"/>
	<path fill="#FFFFFF" d="M475.9,39.1c1.2,0,1.8,0,2.7,0c2.2,4.4,4.4,8.9,6.7,13.4c-1.9,1.3-2.6-0.1-3.2-1.1c-1.8-3.4-3.4-6.9-5-10.3
		C476.7,40.5,476.4,40,475.9,39.1z"/>
	<path fill="#FFFFFF" d="M735.6,77.1c1.4,0,2.1,0,2.9,0c2.2,4.4,4.4,8.9,6.7,13.4c-1.8,1.3-2.7-0.1-3.2-1.1
		c-1.8-3.6-3.4-7.2-5.1-10.8C736.8,78.1,736.3,77.8,735.6,77.1z"/>
	<path fill="#FFFFFF" d="M705.6,91.2c-4.4-0.8-4.2-4.2-5.6-6.4c-1.5-2.3-2.6-4.9-4-7.6c0.8-0.1,1.7-0.2,2.4-0.3
		C700.8,81.5,702.9,85.9,705.6,91.2z"/>
	<path fill="#FFFFFF" d="M614.3,91.2c-2.8-1.2-3.1-4.2-4.3-6.6c-1.2-2.4-2.6-4.8-4-7.4c1,0,1.8,0,2.7,0c2.1,4.3,4.3,8.8,6.6,13.3
		C614.9,90.7,614.6,90.9,614.3,91.2z"/>
	<path fill="#FFFFFF" d="M555.6,77.1c1.3,0,2,0,2.9,0c2.2,4.3,4.4,8.8,6.7,13.3c-1.8,1.5-2.7,0-3.2-1c-1.8-3.5-3.4-7.2-5.1-10.8
		C556.8,78.2,556.3,77.9,555.6,77.1z"/>
	<path fill="#FFFFFF" d="M475.9,77.1c1.1,0,1.9,0,2.6,0c2.2,4.4,4.4,8.8,6.6,13.2c-1.7,1.6-2.6,0-3.1-0.9c-1.5-2.8-2.7-5.8-4.1-8.7
		C477.5,79.6,476.8,78.6,475.9,77.1z"/>
	<path fill="#FFFFFF" d="M425.6,91.2c-4.4-0.8-4.2-4.2-5.6-6.4c-1.5-2.3-2.6-4.9-4-7.6c0.8-0.1,1.7-0.2,2.4-0.3
		C420.8,81.5,423,85.9,425.6,91.2z"/>
	<path fill="#FFFFFF" d="M326.1,77.2c0.9,0,1.6,0,2.6,0c2.1,4.3,4.3,8.8,6.6,13.3c-2,1.1-2.6-0.2-3.2-1.3c-1.4-2.7-2.7-5.5-4-8.3
		C327.4,79.7,326.8,78.5,326.1,77.2z"/>
	<path fill="#FFFFFF" d="M286,77.1c1,0,1.8,0,2.7,0c2.1,4.4,4.4,8.9,6.6,13.4c-2.1,1-2.6-0.3-3.2-1.5c-1.7-3.4-3.3-6.9-5-10.3
		C286.7,78.3,286.4,77.8,286,77.1z"/>
	<path fill="#FFFFFF" d="M254.3,91c-4-3.9-5.5-9.2-8.3-13.8c1,0,1.8,0,2.7,0C250.5,81.7,253.6,85.9,254.3,91z"/>
	<path fill="#FFFFFF" d="M195.6,91.2c-4.4-0.8-4.2-4.2-5.6-6.4c-1.5-2.3-2.6-4.9-4-7.6c0.8-0.1,1.7-0.2,2.4-0.3
		C190.8,81.5,193,85.9,195.6,91.2z"/>
	<path fill="#FFFFFF" d="M155.7,91.4c-4.5-1.2-4.3-4.5-5.6-6.7c-1.4-2.4-2.6-4.8-4-7.4c0.9,0,1.6,0,2.6,0
		C150.7,81.4,153,85.9,155.7,91.4z"/>
	<path fill="#FFFFFF" d="M115.6,91.2c-4.4-0.8-4.2-4.2-5.6-6.4c-1.5-2.3-2.6-4.9-4-7.6c0.8-0.1,1.7-0.2,2.4-0.3
		C110.8,81.5,113,85.9,115.6,91.2z"/>
	<path fill="#FFFFFF" d="M68.6,77.2c2.1,4.3,4.4,8.8,6.6,13.3c-2,1.1-2.6-0.2-3.2-1.3c-1.4-2.7-2.7-5.5-4-8.3
		c-0.6-1.2-1.2-2.4-1.9-3.7C66.9,77.2,67.7,77.2,68.6,77.2z"/>
	<path fill="#FFFFFF" d="M35.2,90.5c-3.9-0.3-3.9-3.6-5.2-5.8c-1.3-2.4-2.6-4.8-4-7.4c0.9,0,1.7,0,2.6,0C30.7,81.5,33,86,35.2,90.5z
		"/>
	<path fill="#FFFFFF" d="M766.1,58.2c0.9,0,1.6,0,2.6,0c2.1,4.3,4.3,8.8,6.6,13.3c-2,1.1-2.6-0.2-3.2-1.3c-1.4-2.7-2.7-5.5-4-8.3
		C767.4,60.7,766.8,59.5,766.1,58.2z"/>
	<path fill="#FFFFFF" d="M745.7,58.1c1.3-0.1,1.9-0.1,2.8-0.1c2.2,4.4,4.5,8.9,6.7,13.4c-1.8,1.5-2.7,0-3.1-1
		c-1.8-3.5-3.4-7.2-5.1-10.8C746.8,59.2,746.4,58.9,745.7,58.1z"/>
	<path fill="#FFFFFF" d="M735.7,72.4c-4.5-1.1-4.3-4.5-5.6-6.7c-1.4-2.3-2.6-4.8-4.1-7.6c0.9,0,1.7-0.1,2.6-0.1
		C730.7,62.4,733,66.9,735.7,72.4z"/>
	<path fill="#FFFFFF" d="M705.7,58.1c1.3-0.1,1.9-0.1,2.8-0.1c2.2,4.4,4.5,8.9,6.7,13.4c-1.8,1.5-2.7,0-3.1-1
		c-1.8-3.5-3.4-7.2-5.1-10.8C706.8,59.2,706.4,58.9,705.7,58.1z"/>
	<path fill="#FFFFFF" d="M695.7,72.3c-4.5-1-4.3-4.4-5.6-6.6c-1.4-2.4-2.6-4.9-4.1-7.6c0.8-0.1,1.6-0.1,2.5-0.2
		C690.7,62.4,693,66.9,695.7,72.3z"/>
	<path fill="#FFFFFF" d="M645.7,72.4c-4.5-1.1-4.3-4.5-5.6-6.7c-1.4-2.3-2.6-4.8-4.1-7.6c0.9,0,1.7-0.1,2.6-0.1
		C640.7,62.4,643,66.9,645.7,72.4z"/>
	<path fill="#FFFFFF" d="M625.7,72.3c-4.5-1-4.3-4.4-5.6-6.6c-1.4-2.4-2.6-4.9-4.1-7.6c0.8-0.1,1.6-0.1,2.5-0.2
		C620.7,62.4,623,66.9,625.7,72.3z"/>
	<path fill="#FFFFFF" d="M605.6,72.2c-4.4-0.8-4.2-4.2-5.5-6.3c-1.5-2.3-2.6-4.9-4-7.6c0.8-0.1,1.6-0.2,2.4-0.3
		C600.8,62.5,602.9,66.9,605.6,72.2z"/>
	<path fill="#FFFFFF" d="M594.3,72c-4.1-3.9-5.3-9.2-8.5-13.8c1.1,0,1.9,0,2.9,0C590.5,62.7,593.6,66.9,594.3,72z"/>
	<path fill="#FFFFFF" d="M566,58c1.2,0,1.8,0,2.6,0c2.2,4.5,4.4,9,6.7,13.5c-2,1.2-2.6-0.2-3.2-1.3c-1.4-2.7-2.7-5.5-4-8.3
		C567.4,60.7,566.8,59.6,566,58z"/>
	<path fill="#FFFFFF" d="M546,58.1c1.1,0,1.8,0,2.6,0c2.2,4.4,4.4,8.9,6.9,14.1c-4.5-1-4.2-4.5-5.6-6.8
		C548.6,63.1,547.4,60.7,546,58.1z"/>
	<path fill="#FFFFFF" d="M486,58.1c1,0,1.8,0,2.7,0c2.1,4.4,4.4,8.9,6.6,13.4c-2.1,1-2.6-0.3-3.2-1.5c-1.7-3.4-3.3-6.9-5-10.3
		C486.7,59.3,486.4,58.8,486,58.1z"/>
	<path fill="#FFFFFF" d="M475.7,72.3c-4.5-1-4.3-4.4-5.6-6.6c-1.4-2.4-2.6-4.9-4.1-7.6c0.8-0.1,1.6-0.1,2.5-0.2
		C470.7,62.4,473,66.9,475.7,72.3z"/>
	<path fill="#FFFFFF" d="M455.3,71.8c-3.4,0.8-3.3-2.1-4.2-3.3c-1.2-1.5-1.7-3.6-2.5-5.4c-0.8-1.6-1.6-3.2-2.5-4.9c1,0,1.7,0,2.6,0
		C450.8,62.5,453,67,455.3,71.8z"/>
	<path fill="#FFFFFF" d="M435.6,72.2c-4.4-0.8-4.2-4.2-5.5-6.3c-1.5-2.3-2.6-4.9-4-7.6c0.8-0.1,1.6-0.2,2.4-0.3
		C430.8,62.5,432.9,66.9,435.6,72.2z"/>
	<path fill="#FFFFFF" d="M414.3,72c-4-3.9-5.5-9.2-8.3-13.8c1,0,1.7,0,2.7,0C410.5,62.7,413.6,66.9,414.3,72z"/>
	<path fill="#FFFFFF" d="M396,58c1.2,0,1.8,0,2.6,0c2.2,4.5,4.4,9,6.7,13.5c-2,1.2-2.6-0.2-3.2-1.3c-1.4-2.7-2.7-5.5-4-8.3
		C397.4,60.7,396.8,59.6,396,58z"/>
	<path fill="#FFFFFF" d="M336,58c1.1,0,1.8,0,2.6,0c2.2,4.4,4.4,8.9,6.7,13.4c-2,1.3-2.6-0.2-3.2-1.2c-1.4-2.7-2.7-5.5-4-8.2
		C337.4,60.8,336.8,59.6,336,58z"/>
	<path fill="#FFFFFF" d="M106,39.2c1,0,1.8,0,2.6,0c2.1,4.4,4.3,8.9,6.6,13.4c-2.1,1-2.6-0.3-3.2-1.4c-1.7-3.4-3.3-6.9-5-10.3
		C106.7,40.3,106.4,39.8,106,39.2z"/>
	<path fill="#FFFFFF" d="M95.6,53.3c-4.5-0.9-4.3-4.3-5.6-6.5c-1.5-2.3-2.6-4.9-4-7.6c0.7-0.1,1.4-0.2,2.4-0.3
		C90.7,43.4,92.9,47.9,95.6,53.3z"/>
	<path fill="#FFFFFF" d="M35.3,52.8c-3.3,0.7-3.3-2.1-4.2-3.3c-1.2-1.6-1.7-3.6-2.5-5.4c-0.8-1.6-1.6-3.2-2.5-4.9c0.9,0,1.7,0,2.6,0
		C30.8,43.5,33,48,35.3,52.8z"/>
	<path fill="#FFFFFF" d="M15.6,53.2c-4.5-0.8-4.2-4.3-5.6-6.4c-1.5-2.3-2.6-4.9-4-7.6C6.9,39.1,7.8,39,8.5,39
		C10.8,43.6,13,47.9,15.6,53.2z"/>
	<path fill="#FFFFFF" d="M706,20.1c1,0,1.8,0,2.7,0c2.1,4.4,4.4,8.9,6.6,13.4c-2.1,1-2.6-0.3-3.2-1.5c-1.7-3.4-3.3-6.9-5-10.3
		C706.7,21.3,706.4,20.8,706,20.1z"/>
	<path fill="#FFFFFF" d="M694.3,34.2c-2.8-1.2-3.1-4.2-4.3-6.6c-1.2-2.4-2.6-4.8-4-7.4c1,0,1.8,0,2.7,0c2.1,4.3,4.3,8.8,6.6,13.3
		C694.9,33.7,694.6,33.9,694.3,34.2z"/>
	<path fill="#FFFFFF" d="M616,20c1.1,0,1.7,0,2.5,0c2.2,4.4,4.4,8.9,6.7,13.4c-1.9,1.3-2.6-0.1-3.2-1.2c-1.4-2.7-2.7-5.5-4-8.2
		C617.4,22.8,616.8,21.6,616,20z"/>
	<path fill="#FFFFFF" d="M595.7,20.1c1.3-0.1,1.9-0.1,2.8-0.1c2.2,4.4,4.5,8.9,6.7,13.4c-1.8,1.5-2.7,0-3.1-1
		c-1.8-3.5-3.4-7.2-5.1-10.8C596.8,21.2,596.4,20.9,595.7,20.1z"/>
	<path fill="#FFFFFF" d="M554.3,34.2c-2.8-1.2-3.1-4.2-4.3-6.6c-1.2-2.4-2.6-4.8-4-7.4c1,0,1.8,0,2.7,0c2.1,4.3,4.3,8.8,6.6,13.3
		C554.9,33.7,554.6,33.9,554.3,34.2z"/>
	<path fill="#FFFFFF" d="M535.2,33.5c-3.9-0.4-3.9-3.6-5.2-5.9c-1.3-2.4-2.6-4.8-4-7.4c0.9,0,1.7,0,2.6,0
		C530.7,24.5,533,29,535.2,33.5z"/>
	<path fill="#FFFFFF" d="M466,20.2c1,0,1.8,0,2.6,0c2.1,4.4,4.3,8.9,6.6,13.4c-2.1,1-2.6-0.3-3.2-1.4c-1.7-3.4-3.3-6.9-5-10.3
		C466.7,21.3,466.4,20.8,466,20.2z"/>
	<path fill="#FFFFFF" d="M445.9,20.1c1.1,0,1.9,0,2.6,0c2.2,4.4,4.4,8.8,6.6,13.2c-1.7,1.7-2.6,0-3.1-0.9c-1.5-2.8-2.7-5.8-4.1-8.7
		C447.5,22.6,446.8,21.6,445.9,20.1z"/>
	<path fill="#FFFFFF" d="M394.3,34c-4-3.9-5.5-9.2-8.3-13.8c1,0,1.7,0,2.7,0C390.5,24.7,393.6,28.9,394.3,34z"/>
	<path fill="#FFFFFF" d="M336,20c1.2,0,1.9,0,2.6,0c2.2,4.5,4.4,9,6.7,13.5c-2,1.2-2.6-0.2-3.2-1.3c-1.4-2.7-2.7-5.5-4-8.3
		C337.4,22.7,336.8,21.6,336,20z"/>
	<path fill="#FFFFFF" d="M316,20.1c1,0,1.7,0,2.6,0c2.2,4.4,4.4,8.9,6.7,13.6c-3.4,0.8-3.2-2.1-4.2-3.3c-1.2-1.5-1.7-3.6-2.5-5.4
		C317.8,23.5,316.9,21.9,316,20.1z"/>
	<path fill="#FFFFFF" d="M296,20c1.1,0,1.7,0,2.5,0c2.2,4.4,4.4,8.9,6.7,13.4c-1.9,1.3-2.6-0.1-3.2-1.2c-1.4-2.7-2.7-5.5-4-8.2
		C297.4,22.8,296.8,21.6,296,20z"/>
	<path fill="#FFFFFF" d="M278.6,20.2c2.1,4.3,4.3,8.8,6.6,13.4c-2,1.1-2.6-0.2-3.2-1.4c-1.4-2.7-2.7-5.5-4-8.3
		c-0.6-1.2-1.2-2.4-1.9-3.7C276.9,20.2,277.7,20.2,278.6,20.2z"/>
	<path fill="#FFFFFF" d="M25.7,34.4c-4.5-1.1-4.3-4.5-5.6-6.7c-1.4-2.3-2.6-4.8-4.1-7.6c0.9,0,1.7-0.1,2.6-0.1
		C20.7,24.4,23,28.9,25.7,34.4z"/>
	<path fill="#FFFFFF" d="M36,20.2c1,0,1.8,0,2.6,0c2.1,4.4,4.3,8.8,6.6,13.4c-2.1,1-2.6-0.3-3.2-1.4c-1.7-3.4-3.3-6.9-5-10.3
		C36.7,21.3,36.4,20.8,36,20.2z"/>
	<path fill="#FFFFFF" d="M265.7,34.4c-4.5-1.1-4.3-4.5-5.6-6.7c-1.4-2.3-2.6-4.8-4.1-7.6c0.9,0,1.7-0.1,2.6-0.1
		C260.7,24.4,263,28.9,265.7,34.4z"/>
	<path fill="#FFFFFF" d="M176,20.1c1.1,0,1.8,0,2.7,0c2.2,4.4,4.4,8.9,6.9,14.1c-4.5-1-4.2-4.5-5.6-6.8
		C178.6,25.1,177.4,22.7,176,20.1z"/>
	<path fill="#FFFFFF" d="M165.6,34.2c-4.4-0.8-4.2-4.2-5.6-6.4c-1.5-2.3-2.6-4.9-4-7.6c0.8-0.1,1.7-0.2,2.4-0.3
		C160.8,24.5,163,28.9,165.6,34.2z"/>
	<path fill="#FFFFFF" d="M105.7,34.3c-4.5-1-4.3-4.4-5.6-6.6c-1.4-2.4-2.6-4.9-4-7.6c0.8-0.1,1.5-0.1,2.5-0.2
		C100.7,24.4,103,28.9,105.7,34.3z"/>
	<path fill="#FFFFFF" d="M75.9,20.1c1.1,0,1.9,0,2.6,0c2.2,4.4,4.4,8.8,6.6,13.2c-1.7,1.6-2.6,0-3.1-0.9c-1.5-2.8-2.7-5.8-4.1-8.7
		C77.5,22.6,76.8,21.6,75.9,20.1z"/>
	<path fill="#FFFFFF" d="M55.9,20c1.2,0,1.8,0,2.7,0c2.2,4.4,4.4,8.9,6.7,13.4c-1.9,1.3-2.6-0.1-3.2-1.2c-1.8-3.4-3.4-6.9-5-10.3
		C56.7,21.5,56.4,21,55.9,20z"/>
	<path fill="#FFFFFF" d="M385.6,53.2c-4.4-0.8-4.2-4.2-5.6-6.4c-1.5-2.3-2.6-4.9-4-7.6c0.8-0.1,1.7-0.2,2.4-0.3
		C380.8,43.5,382.9,47.9,385.6,53.2z"/>
	<path fill="#FFFFFF" d="M345.9,39.1c1.2,0,1.8,0,2.7,0c2.2,4.4,4.4,8.9,6.7,13.4c-1.9,1.3-2.6-0.1-3.2-1.1c-1.8-3.4-3.4-6.9-5-10.3
		C346.7,40.5,346.4,40,345.9,39.1z"/>
	<path fill="#FFFFFF" d="M334.3,53.2c-2.8-1.2-3.1-4.2-4.3-6.6c-1.2-2.4-2.6-4.8-4-7.4c1,0,1.8,0,2.7,0c2.1,4.3,4.3,8.8,6.6,13.3
		C334.9,52.7,334.6,52.9,334.3,53.2z"/>
	<path fill="#FFFFFF" d="M416,39.1c1,0,1.8,0,2.7,0c2.1,4.4,4.4,8.9,6.6,13.4c-2.1,1-2.6-0.3-3.2-1.5c-1.7-3.4-3.3-6.9-5-10.3
		C416.7,40.3,416.4,39.8,416,39.1z"/>
	<path fill="#FFFFFF" d="M315.7,53.4c-4.5-1.2-4.3-4.5-5.6-6.7c-1.4-2.4-2.6-4.8-4-7.4c0.9,0,1.6,0,2.6,0
		C310.7,43.4,313,47.9,315.7,53.4z"/>
	<path fill="#FFFFFF" d="M294.3,53c-4-3.9-5.5-9.2-8.3-13.8c1,0,1.7,0,2.7,0C290.5,43.7,293.6,47.9,294.3,53z"/>
	<path fill="#FFFFFF" d="M265.6,39.1c1.4,0,2.1,0,2.9,0c2.2,4.4,4.4,8.9,6.7,13.4c-1.8,1.3-2.7-0.1-3.2-1.1
		c-1.8-3.6-3.4-7.2-5.1-10.8C266.8,40.1,266.3,39.8,265.6,39.1z"/>
	<path fill="#FFFFFF" d="M436,39.2c1,0,1.8,0,2.6,0c2.1,4.4,4.3,8.8,6.6,13.4c-2.1,1-2.6-0.3-3.2-1.4c-1.7-3.4-3.3-6.9-5-10.3
		C436.7,40.3,436.4,39.8,436,39.2z"/>
	<path fill="#FFFFFF" d="M255.6,53.3c-4.5-0.9-4.3-4.3-5.6-6.5c-1.5-2.3-2.6-4.9-4-7.6c0.7-0.1,1.4-0.2,2.4-0.3
		C250.7,43.4,252.9,47.9,255.6,53.3z"/>
	<path fill="#FFFFFF" d="M166,39.1c1.1,0,1.8,0,2.6,0c2.2,4.4,4.4,8.9,6.9,14.1c-4.5-1-4.2-4.5-5.6-6.8
		C168.6,44.1,167.4,41.7,166,39.1z"/>
	<path fill="#FFFFFF" d="M195.7,53.3c-4.5-1-4.3-4.4-5.6-6.6c-1.4-2.4-2.6-4.9-4.1-7.6c0.8-0.1,1.6-0.1,2.5-0.2
		C190.7,43.4,193,47.9,195.7,53.3z"/>
	<path fill="#FFFFFF" d="M214.3,53.2c-2.8-1.2-3.1-4.2-4.3-6.6c-1.2-2.4-2.6-4.8-4-7.4c1,0,1.8,0,2.7,0c2.1,4.3,4.3,8.8,6.6,13.3
		C214.9,52.7,214.6,52.9,214.3,53.2z"/>
	<path fill="#FFFFFF" d="M465.7,53.3c-4.5-1-4.3-4.4-5.6-6.6c-1.4-2.4-2.6-4.9-4.1-7.6c0.8-0.1,1.6-0.1,2.5-0.2
		C460.7,43.4,463,47.9,465.7,53.3z"/>
	<path fill="#FFFFFF" d="M548,92.1c-2.3-4,0.9-5.8,1.2-8.4c0.2-2.3,2.1-4.4,3.3-6.5c0.7,0,1.5,0,2.3,0
		C552.6,81.9,550.5,86.5,548,92.1z"/>
	<path fill="#FFFFFF" d="M492.4,77c0.8,0,1.5,0,2.1,0c0.1,0.2,0.3,0.5,0.2,0.7c-2.1,4.4-4.2,8.9-6.4,13.3c-2.2-0.2-1.6-1.7-1.1-2.8
		c1.5-3.4,3.1-6.7,4.7-10C492.2,77.9,492.3,77.4,492.4,77z"/>
	<path fill="#FFFFFF" d="M388.1,54c-2.4-3.8,0.8-5.7,1.1-8.1c0.3-2.3,2-4.4,3.2-6.8c0.6,0,1.4,0,2.3,0
		C392.7,43.8,390.6,48.4,388.1,54z"/>
	<path fill="#FFFFFF" d="M408.1,54c-2.3-3.9,0.8-5.7,1.1-8.2c0.3-2.3,2.1-4.4,3.3-6.7c0.6,0,1.4,0,2.3,0
		C412.7,43.8,410.6,48.5,408.1,54z"/>
	<path fill="#FFFFFF" d="M42.3,77.1c1,0,1.6,0,2.5,0c-2.1,4.8-4.2,9.4-6.3,13.9c-2.4,0.1-1.7-1.8-1.5-2.4c1.3-3.3,3-6.4,4.5-9.6
		C41.8,78.4,42,77.8,42.3,77.1z"/>
	<path fill="#FFFFFF" d="M62.3,77.1c0.9,0,1.7,0,2.5,0c-2.2,4.8-4.3,9.4-6.5,14.4c-1.8-1.2-1.4-2.2-0.8-3.5
		C59.1,84.4,60.7,80.7,62.3,77.1z"/>
	<path fill="#FFFFFF" d="M82.3,77.2c1,0,1.8,0,2.4,0c-2.1,4.7-4.2,9.3-6.2,13.9c-2.4-0.1-1.7-1.7-1.3-2.8c1.5-3.4,3.1-6.7,4.7-10
		C82.2,77.9,82.2,77.4,82.3,77.2z"/>
	<path fill="#FFFFFF" d="M102.4,77.2c0.9,0,1.6,0,2.4,0c-2.1,4.7-4.1,9.3-6.2,13.8c-2.2,0.3-1.8-1.4-1.5-2.2
		c1.3-3.3,2.9-6.5,4.3-9.7C101.7,78.4,102.1,77.7,102.4,77.2z"/>
	<path fill="#FFFFFF" d="M448.1,92c-2.4-3.8,0.8-5.7,1.1-8.1c0.3-2.3,2.1-4.4,3.3-6.8c0.6,0,1.3,0,2.3,0
		C452.7,81.8,450.6,86.4,448.1,92z"/>
	<path fill="#FFFFFF" d="M118.1,92c-2.4-3.8,0.8-5.7,1.1-8.1c0.3-2.3,2.1-4.4,3.3-6.8c0.6,0,1.3,0,2.3,0
		C122.7,81.8,120.6,86.4,118.1,92z"/>
	<path fill="#FFFFFF" d="M142.3,77c1,0,1.6,0,2.5,0c-2.1,4.8-4.2,9.4-6.3,14.1c-2.3-0.3-1.7-1.8-1.2-2.9c1.5-3.4,3.1-6.7,4.7-10
		C142.1,77.9,142.1,77.6,142.3,77z"/>
	<path fill="#FFFFFF" d="M166.6,34c1.6-5.2,3.6-9.6,5.8-13.8c0.9,0,1.6,0,2.4,0c-2.1,4.7-4.1,9.3-6.2,13.8
		C168.2,34,167.8,34,166.6,34z"/>
	<path fill="#FFFFFF" d="M158,92.1c-2.3-4,0.9-5.8,1.2-8.4c0.2-2.3,2.1-4.4,3.3-6.5c0.7,0,1.5,0,2.3,0
		C162.6,81.9,160.5,86.5,158,92.1z"/>
	<path fill="#FFFFFF" d="M434.8,77c-2.2,4.9-4.2,9.5-6.3,14.1c-2.3-0.1-1.7-1.7-1.3-2.8c1.5-3.4,3.1-6.7,4.7-10
		c0.2-0.4,0.3-0.9,0.4-1.3C433.2,77,433.8,77,434.8,77z"/>
	<path fill="#FFFFFF" d="M177.5,90.9c0.4-5.1,2.9-9.3,4.9-13.8c0.7,0,1.5,0,2.2,0c0.2,0.2,0.4,0.4,0.4,0.4
		C181.8,81.6,181.3,87.1,177.5,90.9z"/>
	<path fill="#FFFFFF" d="M398,92.2c-2.1-4,0.9-6,1.2-8.5c0.3-2.3,2.1-4.4,3.3-6.6c0.7,0,1.5,0,2.3,0C402.7,81.9,400.6,86.5,398,92.2
		z"/>
	<path fill="#FFFFFF" d="M345.2,77.2c-3.5,4.4-4,9.9-7.5,14.4c-2-3.4,1.1-5.3,1.4-7.8c0.3-2.3,2.1-4.4,3.4-6.8
		C343.2,77,344.1,77.1,345.2,77.2z"/>
	<path fill="#FFFFFF" d="M198,92c-2.3-4,0.9-5.8,1.2-8.4c0.2-2.2,2.1-4.4,3.3-6.5c0.7,0,1.5,0,2.3,0C202.6,81.9,200.5,86.6,198,92z"
		/>
	<path fill="#FFFFFF" d="M218.1,92c-2.4-3.8,0.8-5.7,1.1-8.1c0.3-2.3,2.1-4.4,3.3-6.8c0.6,0,1.3,0,2.3,0
		C222.7,81.8,220.6,86.4,218.1,92z"/>
	<path fill="#FFFFFF" d="M514.8,39.2c-2.1,4.7-4.2,9.3-6.2,13.9c-2.4-0.1-1.7-1.7-1.3-2.8c1.5-3.4,3.1-6.7,4.7-10
		c0.2-0.4,0.3-0.9,0.3-1.1C513.3,39.2,514.1,39.2,514.8,39.2z"/>
	<path fill="#FFFFFF" d="M262.3,77.1c0.9,0,1.7,0,2.5,0c-2.2,4.8-4.3,9.4-6.5,14.4c-1.8-1.2-1.4-2.2-0.8-3.5
		C259.1,84.4,260.7,80.7,262.3,77.1z"/>
	<path fill="#FFFFFF" d="M282.4,77c0.8,0,1.5,0,2.1,0c0.1,0.2,0.3,0.5,0.3,0.7c-2.1,4.4-4.2,8.9-6.4,13.3c-2.2-0.2-1.6-1.7-1.1-2.8
		c1.5-3.4,3.1-6.7,4.7-10C282.2,77.9,282.3,77.4,282.4,77z"/>
	<path fill="#FFFFFF" d="M448.2,53.6c-1-2-1.1-2.1,0.9-7.6c0.9-2.4,2.3-4.7,3.4-7c0.7,0,1.4,0,2,0c0.1,0.1,0.4,0.3,0.4,0.4
		C452.7,43.9,450.6,48.5,448.2,53.6z"/>
	<path fill="#FFFFFF" d="M92.3,20.2c1,0,1.8,0,2.4,0c-2.1,4.7-4.2,9.3-6.2,13.9c-2.4-0.1-1.7-1.7-1.3-2.8c1.5-3.4,3.1-6.7,4.7-10
		C92.2,20.9,92.2,20.4,92.3,20.2z"/>
	<path fill="#FFFFFF" d="M298,92.1c-2.3-4,0.9-5.8,1.2-8.4c0.2-2.3,2.1-4.4,3.3-6.5c0.7,0,1.5,0,2.3,0
		C302.6,81.9,300.5,86.5,298,92.1z"/>
	<path fill="#FFFFFF" d="M318.2,91.5c-1-1.9-1.1-2,0.9-7.5c0.9-2.4,2.3-4.7,3.4-7c0.7,0,1.4,0,2,0c0.1,0.2,0.3,0.5,0.2,0.7
		C322.7,82.2,320.5,86.6,318.2,91.5z"/>
	<path fill="#FFFFFF" d="M772.3,77.1c0.9,0,1.6,0,2.5,0c-2.1,4.8-4.2,9.4-6.4,14.2c-2-0.9-1.6-2-1-3.3
		C769.1,84.4,770.7,80.8,772.3,77.1z"/>
	<path fill="#FFFFFF" d="M738.1,35c-2.4-3.8,0.8-5.7,1.1-8.1c0.3-2.3,2-4.4,3.2-6.8c0.6,0,1.4,0,2.3,0
		C742.7,24.8,740.6,29.4,738.1,35z"/>
	<path fill="#FFFFFF" d="M722.4,20c0.8,0,1.5,0,2.1,0c0.1,0.2,0.3,0.5,0.3,0.7c-2.1,4.4-4.2,8.9-6.4,13.3c-2.2-0.2-1.6-1.7-1.1-2.8
		c1.5-3.4,3.1-6.7,4.7-10C722.2,20.9,722.3,20.4,722.4,20z"/>
	<path fill="#FFFFFF" d="M678,35.1c-2.3-4,0.9-5.8,1.2-8.4c0.2-2.3,2.1-4.4,3.3-6.5c0.7,0,1.5,0,2.3,0
		C682.6,24.9,680.5,29.5,678,35.1z"/>
	<path fill="#FFFFFF" d="M538.3,34.6c-1.5-2.5-1.5-2.5,4.1-14.4c0.9,0,1.6,0,2.3,0C542.7,24.9,540.6,29.4,538.3,34.6z"/>
	<path fill="#FFFFFF" d="M465.2,20.2c-3.5,4.4-4,9.9-7.5,14.4c-2-3.4,1.1-5.3,1.4-7.8c0.3-2.3,2.1-4.4,3.4-6.8
		C463.2,20,464.1,20.1,465.2,20.2z"/>
	<path fill="#FFFFFF" d="M378.2,34.8c-2.7-3.5,0.7-5.4,1-7.8c0.3-2.4,2.1-4.7,3.3-7c0.7,0,1.4,0,2.3,0
		C382.7,24.8,380.6,29.4,378.2,34.8z"/>
	<path fill="#FFFFFF" d="M308,35.2c-2.1-4,0.9-6,1.2-8.5c0.3-2.3,2.1-4.4,3.3-6.6c0.7,0,1.5,0,2.3,0C312.7,24.9,310.6,29.5,308,35.2
		z"/>
	<path fill="#FFFFFF" d="M752.4,77c0.8,0,1.5,0,2.1,0c0.1,0.2,0.3,0.5,0.3,0.7c-2.1,4.4-4.2,8.9-6.4,13.3c-2.2-0.2-1.6-1.7-1.1-2.8
		c1.5-3.4,3.1-6.7,4.7-10C752.2,77.9,752.3,77.4,752.4,77z"/>
	<path fill="#FFFFFF" d="M268,35c-2.3-4,0.9-5.8,1.2-8.4c0.2-2.2,2.1-4.4,3.3-6.5c0.7,0,1.5,0,2.3,0C272.6,24.9,270.5,29.6,268,35z"
		/>
	<path fill="#FFFFFF" d="M572.4,77c0.8,0,1.5,0,2.1,0c0.1,0.2,0.3,0.5,0.2,0.7c-2.1,4.4-4.2,8.9-6.4,13.3c-2.2-0.2-1.6-1.7-1.1-2.8
		c1.5-3.4,3.1-6.7,4.7-10C572.2,77.9,572.3,77.4,572.4,77z"/>
	<path fill="#FFFFFF" d="M588.1,92c-2.4-3.8,0.8-5.7,1.1-8.1c0.3-2.3,2.1-4.4,3.3-6.8c0.6,0,1.3,0,2.3,0
		C592.7,81.8,590.6,86.4,588.1,92z"/>
	<path fill="#FFFFFF" d="M12.3,20c1,0,1.6,0,2.5,0c-2.1,4.8-4.2,9.4-6.3,14.1c-2.3-0.3-1.7-1.8-1.2-2.9c1.5-3.4,3.1-6.7,4.7-10
		C12.1,20.9,12.1,20.6,12.3,20z"/>
	<path fill="#FFFFFF" d="M622.4,77c0.8,0,1.5,0,2.1,0c0.1,0.2,0.3,0.5,0.2,0.7c-2.1,4.4-4.2,8.9-6.4,13.3c-2.2-0.2-1.6-1.7-1.1-2.8
		c1.5-3.4,3.1-6.7,4.7-10C622.2,77.9,622.3,77.4,622.4,77z"/>
	<path fill="#FFFFFF" d="M642.4,77c0.8,0,1.5,0,2.1,0c0.1,0.2,0.3,0.5,0.2,0.7c-2.1,4.4-4.2,8.9-6.4,13.3c-2.2-0.2-1.6-1.7-1.1-2.8
		c1.5-3.4,3.1-6.7,4.7-10C642.2,77.9,642.3,77.4,642.4,77z"/>
	<path fill="#FFFFFF" d="M708.3,91.7c-1.1-2.2-1.2-2.2,0.8-7.7c0.9-2.4,2.3-4.7,3.4-7c0.7,0,1.4,0,2.3,0
		C712.7,81.8,710.6,86.4,708.3,91.7z"/>
	<path fill="#FFFFFF" d="M732.3,77c1,0,1.6,0,2.5,0c-2.1,4.8-4.2,9.4-6.3,14.1c-2.3-0.3-1.7-1.8-1.2-2.9c1.5-3.4,3.1-6.7,4.7-10
		C732.1,77.9,732.1,77.6,732.3,77z"/>
	<path fill="#FFFFFF" d="M232.5,20.1c0.7,0,1.5,0,2.7,0c-3.4,4.4-3.7,10.1-7.7,14.1c-1.7-3.1,1.4-5,1.7-7.5
		C229.4,24.4,231.3,22.3,232.5,20.1z"/>
	<path fill="#FFFFFF" d="M242.5,39.1c0.7,0,1.4,0,2.8,0c-3.6,4.3-3.5,10.1-7.8,14c-1.4-3,1.4-4.9,1.8-7.4
		C239.5,43.5,241.3,41.4,242.5,39.1z"/>
	<path fill="#FFFFFF" d="M625.8,90.1c3.6,0,6.7,0,9.9,0c0.1,0.5,0.2,1,0.3,1.7c-3.3,0-6.5,0-9.9,0C626.1,91.4,626,91,625.8,90.1z"/>
	<path fill="#FFFFFF" d="M576.1,91.8c0-0.6,0-1.1,0-1.6c3.3,0,6.5,0,9.8,0c0,0.6,0,1.1,0,1.6C582.6,91.8,579.4,91.8,576.1,91.8z"/>
	<path fill="#FFFFFF" d="M436.1,91.8c0-0.6,0-1,0-1.6c3.3,0,6.5,0,9.8,0c0,0.6,0,1,0,1.6C442.6,91.8,439.4,91.8,436.1,91.8z"/>
	<path fill="#FFFFFF" d="M315.9,90.2c0,0.6,0,1.1,0,1.7c-3.3,0-6.5,0-9.8,0c0-0.6,0-1.1,0-1.7C309.4,90.2,312.6,90.2,315.9,90.2z"/>
	<path fill="#FFFFFF" d="M726,90.7c-3.1,1.9-6.4,0.9-9.8,1.3c-0.1-0.6-0.2-1.1-0.4-2C719.3,90,722.7,90,726,90.7z"/>
	<path fill="#FFFFFF" d="M275.9,90.2c0,0.6,0,1.1,0,1.7c-3.3,0-6.5,0-9.8,0c0-0.6,0-1.1,0-1.7C269.4,90.2,272.6,90.2,275.9,90.2z"/>
	<path fill="#FFFFFF" d="M756.1,91.8c0-0.6,0-1.1,0-1.6c3.3,0,6.5,0,9.8,0c0,0.6,0,1.1,0,1.6C762.6,91.8,759.4,91.8,756.1,91.8z"/>
	<path fill="#FFFFFF" d="M46.1,91.8c0-0.6,0-1,0-1.7c3.3,0,6.5,0,9.8,0c0,0.6,0,1,0,1.7C52.6,91.8,49.4,91.8,46.1,91.8z"/>
	<path fill="#FFFFFF" d="M86.1,91.8c0-0.6,0-1,0-1.6c3.3,0,6.5,0,9.8,0c0,0.6,0,1,0,1.6C92.6,91.8,89.4,91.8,86.1,91.8z"/>
	<path fill="#FFFFFF" d="M136.2,91.9c-3.6,0-6.7,0-9.9,0c-0.1-0.5-0.2-1-0.3-1.7c3.3,0,6.5,0,9.9,0C135.9,90.6,136,91,136.2,91.9z"
		/>
	<path fill="#FFFFFF" d="M165.8,90.1c3.6,0,6.7,0,9.9,0c0.1,0.5,0.2,1,0.3,1.7c-3.3,0-6.5,0-9.9,0C166.1,91.4,166,91,165.8,90.1z"/>
	<path fill="#FFFFFF" d="M215.9,90.2c0,0.6,0,1.1,0,1.7c-3.3,0-6.5,0-9.8,0c0-0.6,0-1.1,0-1.7C209.4,90.2,212.6,90.2,215.9,90.2z"/>
	<path fill="#FFFFFF" d="M726.1,53.8c0-0.6,0-1.1,0-1.7c3.3,0,6.5,0,9.8,0c0,0.6,0,1.1,0,1.7C732.6,53.8,729.4,53.8,726.1,53.8z"/>
	<path fill="#FFFFFF" d="M436.1,34.8c0-0.6,0-1.1,0-1.7c3.3,0,6.5,0,9.8,0c0,0.6,0,1.1,0,1.7C442.6,34.8,439.4,34.8,436.1,34.8z"/>
	<path fill="#FFFFFF" d="M46.1,34.8c0-0.6,0-1,0-1.7c3.3,0,6.5,0,9.8,0c0,0.6,0,1,0,1.7C52.6,34.8,49.4,34.8,46.1,34.8z"/>
	<path fill="#FFFFFF" d="M396.1,53.8c0-0.6,0-1,0-1.7c3.3,0,6.5,0,9.8,0c0,0.6,0,1,0,1.7C402.6,53.8,399.4,53.8,396.1,53.8z"/>
	<path fill="#FFFFFF" d="M46,72.3c3.1-1.9,6.4-0.9,9.8-1.3c0.1,0.6,0.2,1.1,0.4,2C52.7,73,49.3,73,46,72.3z"/>
	<path fill="#FFFFFF" d="M95.9,71.2c0,0.6,0,1.1,0,1.7c-3.3,0-6.5,0-9.8,0c0-0.6,0-1.1,0-1.7C89.4,71.2,92.6,71.2,95.9,71.2z"/>
	<path fill="#FFFFFF" d="M126.1,72.8c0-0.6,0-1.1,0-1.7c3.3,0,6.5,0,9.8,0c0,0.6,0,1.1,0,1.7C132.6,72.8,129.4,72.8,126.1,72.8z"/>
	<path fill="#FFFFFF" d="M176.2,72.9c-3.6,0-6.7,0-9.9,0c-0.1-0.5-0.2-1-0.3-1.7c3.3,0,6.5,0,9.9,0C175.9,71.6,176,72,176.2,72.9z"
		/>
	<path fill="#FFFFFF" d="M206.1,72.8c0-0.6,0-1,0-1.7c3.3,0,6.5,0,9.8,0c0,0.6,0,1,0,1.7C212.6,72.8,209.4,72.8,206.1,72.8z"/>
	<path fill="#FFFFFF" d="M266.1,72.8c0-0.6,0-1,0-1.6c3.3,0,6.5,0,9.8,0c0,0.6,0,1,0,1.6C272.6,72.8,269.4,72.8,266.1,72.8z"/>
	<path fill="#FFFFFF" d="M315.9,71.2c0,0.6,0,1.1,0,1.7c-3.3,0-6.5,0-9.8,0c0-0.6,0-1.1,0-1.7C309.4,71.2,312.6,71.2,315.9,71.2z"/>
	<path fill="#FFFFFF" d="M436.1,72.8c0-0.6,0-1,0-1.7c3.3,0,6.5,0,9.8,0c0,0.6,0,1,0,1.7C442.6,72.8,439.4,72.8,436.1,72.8z"/>
	<path fill="#FFFFFF" d="M576.1,72.8c0-0.6,0-1.1,0-1.7c3.3,0,6.5,0,9.8,0c0,0.6,0,1.1,0,1.7C582.6,72.8,579.4,72.8,576.1,72.8z"/>
	<path fill="#FFFFFF" d="M635.9,71.2c0,0.6,0,1.1,0,1.7c-3.3,0-6.5,0-9.8,0c0-0.6,0-1.1,0-1.7C629.4,71.2,632.6,71.2,635.9,71.2z"/>
	<path fill="#FFFFFF" d="M716.1,72.8c0-0.6,0-1.1,0-1.6c3.3,0,6.5,0,9.8,0c0,0.6,0,1.1,0,1.6C722.6,72.8,719.4,72.8,716.1,72.8z"/>
	<path fill="#FFFFFF" d="M756.1,72.8c0-0.6,0-1,0-1.6c3.3,0,6.5,0,9.8,0c0,0.6,0,1,0,1.6C762.6,72.8,759.4,72.8,756.1,72.8z"/>
	<path fill="#FFFFFF" d="M216.1,46.8c0-0.6,0-1,0-1.7c3,0,5.8,0,8.8,0c0,0.6,0,1,0,1.7C222,46.8,219.1,46.8,216.1,46.8z"/>
	<path fill="#FFFFFF" d="M594.9,45.2c0,0.6,0,1,0,1.7c-2.9,0-5.8,0-8.8,0c0-0.6,0-1,0-1.7C589,45.2,591.9,45.2,594.9,45.2z"/>
	<path fill="#FFFFFF" d="M755.2,46.9c-3.3,0-6,0-8.9,0c-0.1-0.5-0.2-1-0.3-1.7c3,0,5.9,0,8.9,0C754.9,45.6,755,46,755.2,46.9z"/>
	<path fill="#FFFFFF" d="M575.8,26.1c3.3,0,6,0,8.9,0c0.1,0.5,0.2,1,0.3,1.7c-3,0-5.9,0-8.9,0C576.1,27.4,576,27,575.8,26.1z"/>
	<path fill="#FFFFFF" d="M206.1,27.8c0-0.6,0-1.1,0-1.6c3,0,5.9,0,8.8,0c0,0.6,0,1.1,0,1.6C211.9,27.8,209,27.8,206.1,27.8z"/>
	<path fill="#FFFFFF" d="M607.2,56.2c1.3,1,1.9,1.4,2.7,2c0,1.5,0,3.1,0,4.7c-0.9,0-1.7,0-2.7,0C607.2,61,607.2,59.1,607.2,56.2z"/>
	<path fill="#FFFFFF" d="M743.8,43.9c-0.9,0-1.7,0-2.7,0c0-1.6,0-3.1,0-4.6c0.4-0.4,0.8-0.8,1.5-1.5c0.2,0.6,0.4,1.2,0.6,1.8
		c0.2-0.1,0.4-0.3,0.6-0.4C743.8,40.7,743.8,42.3,743.8,43.9z"/>
	<path fill="#FFFFFF" d="M612.5,57c0.5,0.5,0.9,0.9,1.4,1.4c0,1.4,0,2.8,0,4.4c-0.9,0-1.6,0-2.7,0c-0.1-1.4-0.1-2.9-0.2-4.3
		C611.6,57.9,612,57.5,612.5,57z"/>
	<path fill="#FFFFFF" d="M201.1,24.8c0-1.6,0-3,0-4.3c0.5-0.6,1-1,1.4-1.5c0.5,0.5,1,1,1.4,1.4c0,1.4,0,2.8,0,4.4
		C203,24.8,202.3,24.8,201.1,24.8z"/>
	<path fill="#FFFFFF" d="M737.2,39.3c0.5-0.5,0.8-0.8,1.5-1.5c0.3,0.6,0.5,1.1,0.8,1.7c0.1-0.1,0.3-0.2,0.4-0.3c0,1.4,0,2.9,0,4.6
		c-0.8,0.1-1.6,0.1-2.7,0.2C737.2,42.3,737.2,40.7,737.2,39.3z"/>
	<path fill="#FFFFFF" d="M197.2,20.3c0.5-0.5,0.8-0.8,1.5-1.5c0.2,0.6,0.5,1.1,0.7,1.7c0.2-0.1,0.3-0.2,0.5-0.4c0,1.4,0,2.9,0,4.6
		c-0.7,0.1-1.6,0.1-2.7,0.2C197.2,23.3,197.2,21.7,197.2,20.3z"/>
	<path fill="#FFFFFF" d="M567.2,20.3c0.5-0.5,0.8-0.8,1.5-1.5c0.3,0.6,0.5,1.1,0.8,1.7c0.1-0.1,0.3-0.2,0.4-0.3c0,1.4,0,2.9,0,4.6
		c-0.8,0.1-1.6,0.1-2.7,0.2C567.2,23.3,567.2,21.7,567.2,20.3z"/>
	<path fill="#FFFFFF" d="M573.9,20.6c0,1.2,0,2.6,0,4.2c-0.8,0-1.6,0-2.7,0c-0.1-1.3-0.2-2.8-0.3-4.3c0.6-0.6,1.1-1.1,1.6-1.6
		C572.9,19.5,573.4,19.9,573.9,20.6z"/>
</g>
</svg>
