<?xml version="1.0" encoding="utf-8"?>
<!-- Generator: Adobe Illustrator 18.0.0, SVG Export Plug-In . SVG Version: 6.00 Build 0)  -->
<!DOCTYPE svg PUBLIC "-//W3C//DTD SVG 1.1//EN" "http://www.w3.org/Graphics/SVG/1.1/DTD/svg11.dtd">
<svg version="1.1" id="Layer_1" xmlns="http://www.w3.org/2000/svg" xmlns:xlink="http://www.w3.org/1999/xlink" x="0px" y="0px"
	 viewBox="0 0 960 560" enable-background="new 0 0 960 560" xml:space="preserve">
<path fill="#FFFFFF" d="M761,280L761,280c0,53.2,43.2,96.4,96.4,96.4h0c53.2,0,96.4-43.2,96.4-96.4v0c0-53.2-43.2-96.4-96.4-96.4h0
	C804.2,183.6,761,226.8,761,280z M875.5,292.7c2.5,2.5,4.8,7.9,4.8,14.4c0,9.6,0,21.1,0,21.1c0,6-34.9,6-34.9,0c0,0,0-7.9,0-13.2
	c-20,4.2-24.2-10.2-24.2-10.2c-3.1-8.4-7.9-10.8-7.9-10.8c-6.5-4.4,0.8-4.4,0.8-4.4c7.3,0.6,10.8,7.3,10.8,7.3
	c6.7,10.8,16.9,7.9,20.5,6c0.6-4.8,2.5-7.9,4.2-9.6c-15.7-1.7-32.4-7.9-32.4-34.9c0-7.9,3.1-13.8,7.3-19.2c-0.6-1.7-3.1-9,0.6-18.6
	c0,0,6-1.7,19.2,7.3c5.4-1.7,11.5-2.5,18-2.5c6,0,12.1,0.6,18,2.5c13.8-9,19.2-7.3,19.2-7.3c3.6,9.6,1.2,16.9,0.6,18.6
	c4.8,4.8,7.3,11.5,7.3,19.2C908.2,284.8,891.8,290.8,875.5,292.7z"/>
<path fill="#FFFFFF" d="M6.7,280L6.7,280c0,53.2,43.2,96.4,96.4,96.4h0c53.2,0,96.4-43.2,96.4-96.4v0c0-53.2-43.2-96.4-96.4-96.4h0
	C49.9,183.6,6.7,226.8,6.7,280z M141.5,260c0,0.6,0,1.7,0,2.5c0,25.9-20,56.1-56.1,56.1c-11.5,0-21.7-3.1-30.1-9c1.7,0,3.1,0,4.8,0
	c9,0,18-3.1,24.8-8.4c-8.4,0-15.7-6-18.6-13.8c1.2,0,2.5,0.6,3.6,0.6c1.7,0,3.6,0,5.4-0.6c-9-1.7-15.7-9.6-15.7-19.2l0,0
	c2.5,1.2,5.4,2.5,9,2.5c-5.4-3.6-9-9.6-9-16.3c0-3.6,1.2-7.3,2.5-10.2c9.6,12.1,24.2,20,40.9,20.5c-0.6-2.5-0.6-4.8,0-7.9
	c1.2-7.9,7.9-14.4,15.7-16.3c7.3-1.2,13.8,1.2,18,6c4.2-0.6,9-2.5,12.7-4.8c-1.2,4.8-4.8,8.4-8.4,10.8c4.2-0.6,7.9-1.7,11.5-3.1
	C148.8,254.1,145.2,257.7,141.5,260z"/>
<g>
	<path fill="#FFFFFF" d="M358.1,272.7L358.1,272.7L358.1,272.7L358.1,272.7z"/>
	<path fill="#FFFFFF" d="M255.7,280L255.7,280c0,53.2,43.2,96.4,96.4,96.4h0c53.2,0,96.4-43.2,96.4-96.4v0
		c0-53.2-43.2-96.4-96.4-96.4h0C298.9,183.6,255.7,226.8,255.7,280z M326.2,325.7h-20.5v-62h20.5V325.7z M315.5,255.2L315.5,255.2
		c-7.3,0-11.5-4.8-11.5-10.8s4.8-10.8,11.5-10.8c7.3,0,11.5,4.8,11.5,10.8C327.4,250.4,322.6,255.2,315.5,255.2z M400.3,325.7h-20.5
		v-33c0-8.4-3.1-13.8-10.2-13.8c-5.4,0-9,3.6-10.8,7.9c-0.6,1.2-0.6,3.1-0.6,4.8v34.9h-20.5c0,0,0-56.6,0-62h20.5v9
		c3.1-4.2,7.9-10.2,18.6-10.2c13.8,0,23.4,9,23.4,27.6v34.8H400.3z"/>
</g>
<path fill="#FFFFFF" d="M511.5,280L511.5,280c0,53.2,43.2,96.4,96.4,96.4h0c53.2,0,96.4-43.2,96.4-96.4v0
	c0-53.2-43.2-96.4-96.4-96.4h0C554.7,183.6,511.5,226.8,511.5,280z M655.5,258.3c-5.4,30.1-35.5,56.1-44.5,62
	c-9,6-17.5-2.5-20.5-8.4c-3.6-7.3-13.8-45.7-16.3-48.8c-2.5-3.1-10.8,3.1-10.8,3.1l-3.6-5.4c0,0,16.3-19.2,29-22.3
	C602,236,602,259,605.1,271.7c3.1,12.1,5.4,19.2,7.9,19.2s7.9-6.7,13.2-17.5c5.4-10.2,0-20-11.5-13.2
	C619.4,234.3,660.9,228.2,655.5,258.3z"/>
</svg>
