<?xml version="1.0" encoding="utf-8"?>
<!-- Generator: Adobe Illustrator 18.0.0, SVG Export Plug-In . SVG Version: 6.00 Build 0)  -->
<!DOCTYPE svg PUBLIC "-//W3C//DTD SVG 1.1//EN" "http://www.w3.org/Graphics/SVG/1.1/DTD/svg11.dtd">
<svg version="1.1" id="Layer_1" xmlns="http://www.w3.org/2000/svg" xmlns:xlink="http://www.w3.org/1999/xlink" x="0px" y="0px"
	 width="947.1px" height="192.8px" viewBox="6.7 183.6 947.1 192.8" style="enable-background:new 6.7 183.6 947.1 192.8;"
	 xml:space="preserve">
<path style="fill:#FFFFFF;" d="M829.2,183.6h-68.2v192.8h192.8V183.6H829.2z M875.5,292.7c2.5,2.5,4.8,7.9,4.8,14.4
	c0,9.6,0,21.1,0,21.1c0,6-34.9,6-34.9,0c0,0,0-7.9,0-13.2c-20,4.2-24.2-10.2-24.2-10.2c-3.1-8.4-7.9-10.8-7.9-10.8
	c-6.5-4.4,0.8-4.4,0.8-4.4c7.3,0.6,10.8,7.3,10.8,7.3c6.7,10.8,16.9,7.9,20.5,6c0.6-4.8,2.5-7.9,4.2-9.6
	c-15.7-1.7-32.4-7.9-32.4-34.9c0-7.9,3.1-13.8,7.3-19.2c-0.6-1.7-3.1-9,0.6-18.6c0,0,6-1.7,19.2,7.3c5.4-1.7,11.5-2.5,18-2.5
	c6,0,12.1,0.6,18,2.5c13.8-9,19.2-7.3,19.2-7.3c3.6,9.6,1.2,16.9,0.6,18.6c4.8,4.8,7.3,11.5,7.3,19.2
	C908.2,284.8,891.8,290.8,875.5,292.7z"/>
<path style="fill:#FFFFFF;" d="M6.7,183.6v192.8h192.8V183.6H6.7z M141.5,260c0,0.6,0,1.7,0,2.5c0,25.9-20,56.1-56.1,56.1
	c-11.5,0-21.7-3.1-30.1-9c1.7,0,3.1,0,4.8,0c9,0,18-3.1,24.8-8.4c-8.4,0-15.7-6-18.6-13.8c1.2,0,2.5,0.6,3.6,0.6
	c1.7,0,3.6,0,5.4-0.6c-9-1.7-15.7-9.6-15.7-19.2l0,0c2.5,1.2,5.4,2.5,9,2.5c-5.4-3.6-9-9.6-9-16.3c0-3.6,1.2-7.3,2.5-10.2
	c9.6,12.1,24.2,20,40.9,20.5c-0.6-2.5-0.6-4.8,0-7.9c1.2-7.9,7.9-14.4,15.7-16.3c7.3-1.2,13.8,1.2,18,6c4.2-0.6,9-2.5,12.7-4.8
	c-1.2,4.8-4.8,8.4-8.4,10.8c4.2-0.6,7.9-1.7,11.5-3.1C148.8,254.1,145.2,257.7,141.5,260z"/>
<g>
	<path style="fill:#FFFFFF;" d="M358.1,272.7L358.1,272.7L358.1,272.7L358.1,272.7z"/>
	<path style="fill:#FFFFFF;" d="M255.7,183.6v192.8h192.8V183.6H255.7z M326.2,325.7h-20.5v-62h20.5V325.7z M315.5,255.2
		L315.5,255.2c-7.3,0-11.5-4.8-11.5-10.8s4.8-10.8,11.5-10.8c7.3,0,11.5,4.8,11.5,10.8C327.4,250.4,322.6,255.2,315.5,255.2z
		 M400.3,325.7h-20.5v-33c0-8.4-3.1-13.8-10.2-13.8c-5.4,0-9,3.6-10.8,7.9c-0.6,1.2-0.6,3.1-0.6,4.8v34.9h-20.5c0,0,0-56.6,0-62
		h20.5v9c3.1-4.2,7.9-10.2,18.6-10.2c13.8,0,23.4,9,23.4,27.6V325.7L400.3,325.7z"/>
</g>
<path style="fill:#FFFFFF;" d="M511.5,183.6v192.8h192.8V183.6H511.5z M655.5,258.3c-5.4,30.1-35.5,56.1-44.5,62
	c-9,6-17.5-2.5-20.5-8.4c-3.6-7.3-13.8-45.7-16.3-48.8c-2.5-3.1-10.8,3.1-10.8,3.1l-3.6-5.4c0,0,16.3-19.2,29-22.3
	c13.2-2.5,13.2,20.5,16.3,33.2c3.1,12.1,5.4,19.2,7.9,19.2s7.9-6.7,13.2-17.5c5.4-10.2,0-20-11.5-13.2
	C619.4,234.3,660.9,228.2,655.5,258.3z"/>
</svg>
