<?xml version="1.0" encoding="utf-8"?>
<!-- Generator: Adobe Illustrator 18.0.0, SVG Export Plug-In . SVG Version: 6.00 Build 0)  -->
<!DOCTYPE svg PUBLIC "-//W3C//DTD SVG 1.1//EN" "http://www.w3.org/Graphics/SVG/1.1/DTD/svg11.dtd">
<svg version="1.1" id="Layer_1" xmlns="http://www.w3.org/2000/svg" xmlns:xlink="http://www.w3.org/1999/xlink" x="0px" y="0px"
	 viewBox="0 0 400 400" enable-background="new 0 0 400 400" xml:space="preserve">
<g id="E86bo3.tif">
	<g>
		<path fill="#FFFFFF" d="M201.1,360.8c-1.1-2.5-1.7-3.7-2.1-4.9c-11.8-39.2-31.2-74.6-53-108.8c-13.3-20.9-26.3-42.1-39-63.4
			c-39.8-67.3,3.8-148.3,78.8-158.5c56.2-7.6,108.1,27.3,120.9,80.8c6.2,25.9,3.2,51-10.1,74c-17.6,30.2-36.3,59.8-54.4,89.7
			c-16.3,27.1-29.9,55.4-38.9,85.8C202.9,356.8,202.2,358.1,201.1,360.8z M163,136.7c-0.1,21.5,16.4,38.2,37.8,38.2
			c21,0.1,38-16.7,38.2-37.5c0.2-21.4-16.5-38.3-37.7-38.4C179.5,98.9,163.1,115.2,163,136.7z"/>
	</g>
</g>
</svg>
