<?xml version="1.0" encoding="utf-8"?>
<!-- Generator: Adobe Illustrator 18.0.0, SVG Export Plug-In . SVG Version: 6.00 Build 0)  -->
<!DOCTYPE svg PUBLIC "-//W3C//DTD SVG 1.1//EN" "http://www.w3.org/Graphics/SVG/1.1/DTD/svg11.dtd">
<svg version="1.1" id="Layer_1" xmlns="http://www.w3.org/2000/svg" xmlns:xlink="http://www.w3.org/1999/xlink" x="0px" y="0px"
	 viewBox="0 -80 640 640" enable-background="new 0 -80 640 640" xml:space="preserve">
<g>
	<path fill="#FFFFFF" d="M512,100.9c-0.2-18.4,0.5-41-25.9-41.1c-27.8-0.2-27.3,23.2-27.8,42.5c-0.9,34.6,0,69.1-0.5,103.8
		c-0.2,11.3,5.3,28.7-14.2,28c-16.4-0.5-12.6-16.4-12.6-27.3c-0.2-58.5,0.2-117.1-0.3-175.6c-0.2-19.1-1.5-39.8-28.3-38.9
		c-24.9,0.7-25.3,19.5-25.1,38.2c0.3,55,0.2,109.9,0.2,164.9c0,11.6,0.9,26.1-15.2,25.4c-14.7-0.7-12.3-15-12.3-25.3
		c-0.2-63,0-126,0-188.9c0-20.7-1.9-42.3-28.7-41.8c-25.1,0.5-26.5,21.8-26.5,41.3c0,61.1,0.3,122.4-0.2,183.5
		c0,12.1,5.8,31.4-14.2,30.9c-16.2-0.5-13.3-17.9-13.3-30c-0.2-48-0.2-95.7,0-143.7c0-20.5,0-42.3-28-41.3
		C213.5,6.2,213,26.8,213,46.5c0.2,84.3,0.2,168.5-0.2,252.8c0,10.8,5.1,25.1-10.1,29.7c-13.5,4.1-18.3-9.4-24.9-17.2
		c-10.9-13.3-21.8-26.6-31.4-41c-12.3-18.3-29-31.9-49-18.9c-17.6,11.4-12.6,29-3.8,44.9c8.9,15.8,17.9,31.5,26.8,47.3h389.9
		c0.4-31.3,0.1-63.9,1.9-88.4C512.3,196.1,512.7,148.3,512,100.9z"/>
	<path fill="#FFFFFF" d="M0-80v640h640V-80H0z M590.5,343.9h-80.1c-0.4,31-1.3,60.7-5.4,80.2c-13.3,63.5-56.3,100.7-122.2,108.7
		c-88.1,10.8-161.8-10.6-208-93.2c-17.9-32-36.1-63.8-54.3-95.7h-71V145.6c0-76.5,79.5-201,245.4-201h295.6V343.9z"/>
</g>
</svg>
