<?xml version="1.0" encoding="utf-8"?>
<!-- Generator: Adobe Illustrator 18.0.0, SVG Export Plug-In . SVG Version: 6.00 Build 0)  -->
<!DOCTYPE svg PUBLIC "-//W3C//DTD SVG 1.1//EN" "http://www.w3.org/Graphics/SVG/1.1/DTD/svg11.dtd">
<svg version="1.1" id="Layer_1" xmlns="http://www.w3.org/2000/svg" xmlns:xlink="http://www.w3.org/1999/xlink" x="0px" y="0px"
	 viewBox="0 -80 640 640" enable-background="new 0 -80 640 640" xml:space="preserve">
<g>
	<polygon fill="#FFFFFF" points="380.1,225.5 434.1,198.1 434.1,110.6 378.4,160.2 378.4,226.3 263.5,226.3 263.5,251.6 
		379.3,251.6 379.3,225.5 	"/>
	<polygon fill="#FFFFFF" points="380.1,251.6 379.3,251.6 379.3,473.6 435,421.3 435.9,223.7 435,223.7 	"/>
	<polygon fill="#FFFFFF" points="206,258.5 263.5,225.5 263.5,159.3 205.2,109.7 205.2,423.1 263.5,474.4 263.5,251.6 206,284.7 	
		"/>
	<polygon fill="#FFFFFF" points="206,99.2 206,103.6 265.2,140.1 378.4,141 435,103.6 434.1,100.1 379.3,51.4 264.4,51.4 	"/>
	<path fill="#FFFFFF" d="M0-80v640h640V-80H0z M504.6,517.1h-370l-114-350.8L320.1-50.5l298.6,216.8L504.6,517.1z"/>
	<polygon fill="#FFFFFF" points="435,198.5 435,197.6 434.1,198.1 434.1,198.5 	"/>
</g>
</svg>
