<?xml version="1.0" encoding="utf-8"?>
<!-- Generator: Adobe Illustrator 18.0.0, SVG Export Plug-In . SVG Version: 6.00 Build 0)  -->
<!DOCTYPE svg PUBLIC "-//W3C//DTD SVG 1.1//EN" "http://www.w3.org/Graphics/SVG/1.1/DTD/svg11.dtd">
<svg version="1.1" id="Layer_1" xmlns="http://www.w3.org/2000/svg" xmlns:xlink="http://www.w3.org/1999/xlink" x="0px" y="0px"
	 viewBox="-276.6 -274 640 640" enable-background="new -276.6 -274 640 640" xml:space="preserve">
<g>
	<path fill="#FFFFFF" d="M-85.2-129.6c-4.2-1.8-15.1-5.1-25.4,3.9l-2.6,2.2c-13.6,12.1-9.9,26.6-7.7,32.3
		c2.2,5.7,9.2,18.9,27.4,18.9H-71v-35.7C-71-121.9-80.9-127.8-85.2-129.6z"/>
	<rect x="11.7" y="10.4" fill="#FFFFFF" width="55.7" height="55.3"/>
	<path fill="#FFFFFF" d="M164.2,205.8c4.2,1.8,15.1,5.1,25.4-3.9l2.6-2.2c13.6-12.1,9.9-26.6,7.7-32.3c-2.2-5.7-9.2-18.9-27.4-18.9
		h-22.4v35.7C150.1,198.1,160,203.9,164.2,205.8z"/>
	<path fill="#FFFFFF" d="M-276.6-274v640h640v-640H-276.6z M292.5,10.4H150.1v55.3h22.4c46.9,0,88,28.3,104.7,72
		c16.7,43.7,5,92.1-29.8,123.3l-2.6,2.4c-31.8,28.3-75.5,35.3-114.5,17.8s-63-54.6-63-97.2v-35.7H11.7v158.2H-71V148.4h-142.4V65.7
		H-71V10.4h-22.4c-46.9,0-88-28.3-104.7-72c-16.7-43.7-5-92.1,29.8-123.3l2.6-2.4c31.8-28.3,75.5-35.3,114.5-17.8
		c39,17.5,63,54.6,63,97.2v35.7h55.7v-158.2h82.7v158.2h142.4V10.4z"/>
	<rect x="-71" y="65.7" fill="#FFFFFF" width="82.7" height="82.7"/>
	<rect x="67.4" y="-72.3" fill="#FFFFFF" width="82.7" height="82.7"/>
</g>
</svg>
