<?xml version="1.0" encoding="utf-8"?>
<!-- Generator: Adobe Illustrator 18.0.0, SVG Export Plug-In . SVG Version: 6.00 Build 0)  -->
<!DOCTYPE svg PUBLIC "-//W3C//DTD SVG 1.1//EN" "http://www.w3.org/Graphics/SVG/1.1/DTD/svg11.dtd">
<svg version="1.1" id="Layer_1" xmlns="http://www.w3.org/2000/svg" xmlns:xlink="http://www.w3.org/1999/xlink" x="0px" y="0px"
	 viewBox="0 -80 640 640" enable-background="new 0 -80 640 640" xml:space="preserve">
<path fill="#FFFFFF" d="M0-80v640h640V-80H0z M438.7,482.4V522H320H201.3v-39.6v-39.6H320h118.7V482.4z M597,126.3v79.1h-39.6h-39.6
	V245v39.6h-39.6h-39.6v39.6v39.6H320H201.3v-39.6v-39.6h79.1h79.1V245v-39.6h39.6h39.6v-39.6v-39.6H320H201.3v39.6v39.6h-79.1H43
	v-79.1V47.1h39.6h39.6V7.6V-32H320h197.9V7.6v39.6h39.6H597V126.3z"/>
</svg>
