<?xml version="1.0" encoding="utf-8"?>
<!-- Generator: Adobe Illustrator 18.0.0, SVG Export Plug-In . SVG Version: 6.00 Build 0)  -->
<!DOCTYPE svg PUBLIC "-//W3C//DTD SVG 1.1//EN" "http://www.w3.org/Graphics/SVG/1.1/DTD/svg11.dtd">
<svg version="1.1" id="Layer_1" xmlns="http://www.w3.org/2000/svg" xmlns:xlink="http://www.w3.org/1999/xlink" x="0px" y="0px"
	 viewBox="-24.7 148.3 1000 120" enable-background="new -24.7 148.3 1000 120" xml:space="preserve">
<path fill="#FFFFFF" d="M396.7,223.5c2.3,2.3,4.5,7.4,4.5,13.6c0,9.1,0,19.9,0,19.9c0,5.7-32.9,5.7-32.9,0c0,0,0-7.4,0-12.5
	c-18.7,4-22.7-9.6-22.7-9.6c-2.8-7.9-7.4-10.2-7.4-10.2c-6.2-4,0.6-4,0.6-4c6.8,0.6,10.2,6.8,10.2,6.8c6.2,10.2,15.9,7.4,19.3,5.7
	c0.6-4.5,2.3-7.4,4-9.1c-14.7-1.7-30.6-7.4-30.6-32.9c0-7.4,2.8-13,6.8-18.2c-0.6-1.7-2.8-8.5,0.6-17.6c0,0,5.7-1.7,18.2,6.8
	c5.1-1.7,10.8-2.3,17-2.3c5.7,0,11.3,0.6,17,2.3c13-8.5,18.2-6.8,18.2-6.8c3.4,9.1,1.1,15.9,0.6,17.6c4.5,4.5,6.8,10.8,6.8,18.2
	C427.3,216.1,412,221.8,396.7,223.5z"/>
<path fill="#FFFFFF" d="M767.5,181.1c-6.7,37.2-43.9,69.3-55.1,76.7c-11.2,7.4-21.6-3-25.3-10.4c-4.5-8.9-17.1-56.6-20.1-60.3
	c-3-3.7-13.4,3.7-13.4,3.7l-4.5-6.7c0,0,20.1-23.8,35.7-27.6c16.4-3,16.4,25.3,20.1,41c3.7,14.9,6.7,23.8,9.7,23.8
	c3,0,9.7-8.2,16.4-21.6c6.7-12.7,0-24.6-14.2-16.4C722.8,151.3,774.2,143.9,767.5,181.1z"/>
<g>
	<rect x="817.6" y="189.1" fill="#FFFFFF" width="24.1" height="73.1"/>
	<path fill="#FFFFFF" d="M829,179.2L829,179.2c-8.5,0-13.5-5.7-13.5-12.8c0-7.1,5.7-12.8,13.5-12.8c8.5,0,13.5,5.7,13.5,12.8
		C843.1,173.5,837.5,179.2,829,179.2z"/>
	<path fill="#FFFFFF" d="M929,262.2h-24.1v-39c0-9.9-3.5-16.3-12.1-16.3c-6.4,0-10.6,4.3-12.8,9.2c-0.7,1.4-0.7,3.5-0.7,5.7v41.2
		h-24.1c0,0,0-66.7,0-73.1h24.1v10.6c3.5-5,9.2-12.1,22-12.1c16.3,0,27.7,10.6,27.7,32.6V262.2z"/>
</g>
<path fill="#FFFFFF" d="M594.7,182.9c0,0.8,0,2.4,0,3.2c0,34.3-26.3,74.1-74.1,74.1c-15.1,0-28.7-4-39.9-12c2.4,0,4,0,6.4,0
	c12,0,23.9-4,32.7-11.2c-11.2,0-20.7-8-24.7-18.3c1.6,0,3.2,0.8,4.8,0.8c2.4,0,4.8,0,7.2-0.8c-12-2.4-20.7-12.8-20.7-25.5l0,0
	c3.2,1.6,7.2,3.2,12,3.2c-7.2-4.8-12-12.8-12-21.5c0-4.8,1.6-9.6,3.2-13.6c12.8,15.9,31.9,26.3,54.2,27.1c-0.8-3.2-0.8-6.4,0-10.4
	c1.6-10.4,10.4-19.1,20.7-21.5c9.6-1.6,18.3,1.6,23.9,8c5.6-0.8,12-3.2,16.7-6.4c-1.6,6.4-6.4,11.2-11.2,14.3
	c5.6-0.8,10.4-2.4,15.1-4C604.3,175,599.5,179.8,594.7,182.9z"/>
<g>
	<path fill="#FFFFFF" d="M267.4,199c0,10.8,0,21.7,0,32.5c0,12.6-8.7,22.9-21.2,25c-1.2,0.2-2.6,0.3-3.9,0.3c-16.5,0-33.1,0-49.7,0
		c-13.7,0-24.8-10.8-25-24.4c-0.2-11.3,0-22.5,0-33.8c0-0.3,0-0.6,0.1-0.9c9.4,0,18.7,0,28,0c-3.1,11.2-0.7,20.7,9.1,27.3
		c8.4,5.6,17.3,5.5,25.6-0.1c9.6-6.6,12.1-16.1,8.9-27.2c9.3,0,18.6,0,28,0C267.4,198,267.4,198.5,267.4,199z"/>
	<path fill="#FFFFFF" d="M203.7,205.5c0-7.7,6.3-13.8,13.9-13.8s13.8,6.2,13.8,13.8c0,7.7-6.3,14-14,13.9
		C209.8,219.3,203.7,213.1,203.7,205.5z"/>
	<path fill="#FFFFFF" d="M267.4,189.1c-0.6,0-1,0.1-1.5,0.1c-10.3,0-20.5,0-30.8,0c-0.8,0-1.6-0.4-2.2-0.9c-8.8-7.8-21.8-7.8-30.7,0
		c-0.8,0.7-1.4,0.9-2.4,0.9c-10.2,0-20.4,0-30.6,0c-0.5,0-0.9,0-1.4,0c-0.9-10,0.4-19,8.4-25.9c0.4-0.3,0.8-0.6,1.3-1
		c0,7,0,13.8,0,20.7c1.9,0,3.6,0,5.5,0c0-0.6,0-1.1,0-1.6c0-7,0-14,0-21c0-1,0.3-1.6,1.3-1.9c1.3-0.3,2.6-0.7,4.1-1
		c0,8.6,0,17.1,0,25.6c1.9,0,3.6,0,5.5,0c0-8.5,0-17.2,0-25.9c0.6,0,1,0,1.5,0c15.7,0,31.3,0,47,0c13.5,0,24.6,10.7,25,24.2
		C267.5,183.8,267.4,186.4,267.4,189.1z"/>
</g>
<path fill="#FFFFFF" d="M86,253.3c0,0.3-0.4,0.9-0.8,1.1c-11.6,5.2-23.6,7.5-35.9,2.7c-1.9-0.8-3.6-1.8-5.3-2.9
	c-5.9-3.9-8.5-9.4-8.5-16.5c0-12.2,0-24.2,0-36.4c0-0.8,0-1.4,0-2.4c-4.6,0-9.2,0-13.9,0c0-3.6,0-7.1,0-10.5c0-4.1,0-4.1,3.6-5.5
	c10.4-3.8,15.6-11.6,17.8-22c0.2-1.2,0.4-2.5,0.7-3.8c0-0.1,0.1-0.2,0.2-0.3c4.6,0,9.4,0,14.4,0c0,8,0,15.8,0,23.8
	c8.1,0,15.8,0,23.8,0c0,6.1,0,12.1,0,18.2c-7.9,0-15.7,0-23.4,0c-0.1,0.6-0.2,0.9-0.2,1.1c0,10.7-0.1,21.6,0.1,32.3
	c0.1,6.1,3.3,9.4,9.4,10.3c6,0.9,11.3-0.8,16.4-3.6c0.6-0.3,1.1-0.7,2-1.1C86,243.2,86,248.3,86,253.3z"/>
</svg>
