<?xml version="1.0" encoding="utf-8"?>
<!-- Generator: Adobe Illustrator 18.0.0, SVG Export Plug-In . SVG Version: 6.00 Build 0)  -->
<!DOCTYPE svg PUBLIC "-//W3C//DTD SVG 1.1//EN" "http://www.w3.org/Graphics/SVG/1.1/DTD/svg11.dtd">
<svg version="1.1" id="Layer_1" xmlns="http://www.w3.org/2000/svg" xmlns:xlink="http://www.w3.org/1999/xlink" x="0px" y="0px"
	 viewBox="0 0 960 560" enable-background="new 0 0 960 560" xml:space="preserve">
<path fill="#FFFFFF" d="M829.2,183.6H761v192.8h192.8V183.6H829.2z"/>
<path fill="#FFFFFF" d="M6.7,183.6v192.8h192.8V183.6H6.7z M47.5,298c-9.9,0-18-8.1-18-18c0-9.9,8.1-18,18-18s18,8.1,18,18
	C65.5,289.9,57.4,298,47.5,298z M104,298c-9.9,0-18-8.1-18-18c0-9.9,8.1-18,18-18s18,8.1,18,18C122,289.9,113.9,298,104,298z
	 M160.5,298c-9.9,0-18-8.1-18-18c0-9.9,8.1-18,18-18s18,8.1,18,18C178.5,289.9,170.4,298,160.5,298z"/>
<g id="fPYQO9.tif">
	<g>
		<g>
			<path fill="#FFFFFF" d="M255.7,183.6v192.8h192.8V183.6H255.7z M403.6,273.4c0,11.4,0,22.8,0,34.2c0,13.3-9.2,24.1-22.3,26.3
				c-1.3,0.2-2.7,0.3-4.1,0.3c-17.4,0-34.9,0-52.3,0c-14.4,0-26.1-11.4-26.3-25.7c-0.2-11.9,0-23.7,0-35.6c0-0.3,0-0.6,0.1-1
				c9.9,0,19.7,0,29.5,0c-3.3,11.8-0.7,21.8,9.6,28.7c8.8,5.9,18.2,5.8,26.9-0.1c10.1-6.9,12.7-16.9,9.4-28.6c9.8,0,19.6,0,29.5,0
				C403.6,272.4,403.6,272.9,403.6,273.4z M336.5,280.3c0-8.1,6.6-14.5,14.6-14.5c8,0,14.5,6.5,14.5,14.5c0,8.1-6.6,14.7-14.7,14.6
				C342.9,294.8,336.5,288.3,336.5,280.3z M403.6,263c-0.6,0-1.1,0.1-1.6,0.1c-10.8,0-21.6,0-32.4,0c-0.8,0-1.7-0.4-2.3-0.9
				c-9.3-8.2-23-8.2-32.3,0c-0.8,0.7-1.5,1-2.5,0.9c-10.7,0-21.5,0-32.2,0c-0.5,0-1,0-1.5,0c-1-10.5,0.4-20,8.8-27.3
				c0.4-0.3,0.8-0.6,1.4-1.1c0,7.4,0,14.5,0,21.8c2,0,3.8,0,5.8,0c0-0.6,0-1.2,0-1.7c0-7.4,0-14.7,0-22.1c0-1.1,0.3-1.7,1.4-2
				c1.4-0.3,2.7-0.7,4.3-1.1c0,9.1,0,18,0,27c2,0,3.8,0,5.8,0c0-9,0-18.1,0-27.3c0.6,0,1.1,0,1.6,0c16.5,0,33,0,49.5,0
				c14.2,0,25.9,11.3,26.3,25.5C403.7,257.4,403.6,260.1,403.6,263z"/>
			<path fill="#FFFFFF" d="M389.1,245.4c0-2-1.1-3.2-3.1-3.3c-2.9-0.1-5.7-0.1-8.6,0c-1.9,0.1-3,1.3-3.1,3.2c0,2.8,0,5.7,0,8.5
				c0,1.9,1.1,3.1,2.9,3.2c3,0.1,5.9,0.1,8.9,0c2-0.1,2.9-1.3,3-3.2c0-1.4,0-2.7,0-4.1C389.1,248.2,389.1,246.8,389.1,245.4z"/>
		</g>
	</g>
</g>
<path fill="#FFFFFF" d="M511.5,183.6v192.8h192.8V183.6H511.5z M637.1,320.7c0,0.3-0.4,0.8-0.7,1c-10.5,4.7-21.3,6.8-32.5,2.4
	c-1.7-0.7-3.3-1.6-4.8-2.6c-5.3-3.5-7.7-8.5-7.7-14.9c0-11,0-21.9,0-32.9c0-0.7,0-1.3,0-2.2c-4.2,0-8.3,0-12.6,0c0-3.3,0-6.4,0-9.5
	c0-3.7,0-3.7,3.3-5c9.4-3.4,14.1-10.5,16.1-19.9c0.2-1.1,0.4-2.3,0.6-3.4c0-0.1,0.1-0.2,0.2-0.3c4.2,0,8.5,0,13,0
	c0,7.2,0,14.3,0,21.5c7.3,0,14.3,0,21.5,0c0,5.5,0,10.9,0,16.5c-7.1,0-14.2,0-21.2,0c-0.1,0.5-0.2,0.8-0.2,1
	c0,9.7-0.1,19.5,0.1,29.2c0.1,5.5,3,8.5,8.5,9.3c5.4,0.8,10.2-0.7,14.8-3.3c0.5-0.3,1-0.6,1.8-1
	C637.1,311.6,637.1,316.2,637.1,320.7z"/>
</svg>
