<?xml version="1.0" encoding="utf-8"?>
<!-- Generator: Adobe Illustrator 18.0.0, SVG Export Plug-In . SVG Version: 6.00 Build 0)  -->
<!DOCTYPE svg PUBLIC "-//W3C//DTD SVG 1.1//EN" "http://www.w3.org/Graphics/SVG/1.1/DTD/svg11.dtd">
<svg version="1.1"
	 id="svg3013" sodipodi:docname="phone_font_awesome.svg" inkscape:version="0.48.3.1 r9886" xmlns:inkscape="http://www.inkscape.org/namespaces/inkscape" xmlns:sodipodi="http://sodipodi.sourceforge.net/DTD/sodipodi-0.dtd" xmlns:rdf="http://www.w3.org/1999/02/22-rdf-syntax-ns#" xmlns:dc="http://purl.org/dc/elements/1.1/" xmlns:cc="http://creativecommons.org/ns#" xmlns:svg="http://www.w3.org/2000/svg"
	 xmlns="http://www.w3.org/2000/svg" xmlns:xlink="http://www.w3.org/1999/xlink" x="0px" y="0px" viewBox="0 0 400 400"
	 enable-background="new 0 0 400 400" xml:space="preserve">
<sodipodi:namedview  inkscape:current-layer="svg3013" inkscape:window-maximized="0" inkscape:window-y="25" inkscape:window-x="0" inkscape:window-height="480" inkscape:pageopacity="0" inkscape:window-width="640" inkscape:pageshadow="2" bordercolor="#666666" borderopacity="1" pagecolor="#ffffff" gridtolerance="10" objecttolerance="10" showgrid="false" inkscape:cx="896" inkscape:cy="896" inkscape:zoom="0.13169643" guidetolerance="10" id="namedview3019">
	</sodipodi:namedview>
<g id="g3015" transform="matrix(1,0,0,-1,159.45763,1293.0169)">
	<path id="path3017" inkscape:connector-curvature="0" fill="#FFFFFF" d="M197.7,1001.9c0-4-0.7-9.3-2.2-15.7
		c-1.5-6.5-3.1-11.6-4.7-15.3c-3.1-7.4-12.2-15.3-27.2-23.7c-14-7.6-27.8-11.4-41.5-11.4c-4,0-7.9,0.3-11.7,0.8
		c-3.8,0.5-8.1,1.5-12.8,2.8c-4.8,1.3-8.3,2.4-10.6,3.2c-2.3,0.8-6.4,2.3-12.4,4.6c-6,2.2-9.6,3.6-10.9,4
		c-14.6,5.2-27.6,11.4-39.1,18.5c-19,11.8-38.7,27.8-59,48.1c-20.3,20.3-36.3,40-48.1,59c-7.1,11.5-13.3,24.5-18.5,39.1
		c-0.4,1.3-1.8,5-4,10.9s-3.8,10.1-4.6,12.4c-0.8,2.3-1.9,5.8-3.2,10.6c-1.3,4.8-2.3,9-2.8,12.8c-0.5,3.8-0.8,7.7-0.8,11.7
		c0,13.7,3.8,27.5,11.4,41.5c8.3,15,16.2,24.1,23.7,27.2c3.7,1.6,8.8,3.2,15.3,4.7c6.5,1.5,11.7,2.2,15.7,2.2c2.1,0,3.6-0.2,4.7-0.7
		c2.7-0.9,6.6-6.5,11.8-17c1.6-2.8,3.9-6.8,6.7-12.1c2.8-5.2,5.4-9.9,7.8-14.2s4.7-8.2,6.9-11.9c0.4-0.6,1.7-2.5,3.9-5.6
		s3.8-5.8,4.8-7.9s1.6-4.3,1.6-6.4c0-3-2.1-6.7-6.4-11.2s-8.9-8.6-13.8-12.3c-5-3.7-9.6-7.7-13.8-11.8c-4.2-4.2-6.4-7.6-6.4-10.3
		c0-1.3,0.4-3,1.1-5s1.4-3.5,1.9-4.6c0.5-1,1.6-2.8,3.1-5.4c1.6-2.5,2.4-3.9,2.6-4.2c11.3-20.4,24.3-37.9,38.8-52.5
		c14.6-14.6,32.1-27.5,52.5-38.8c0.3-0.1,1.7-1,4.2-2.6s4.3-2.6,5.4-3.1c1-0.5,2.6-1.2,4.6-1.9c2-0.7,3.7-1.1,5-1.1
		c2.7,0,6.1,2.1,10.3,6.4c4.2,4.2,8.1,8.9,11.8,13.8c3.7,5,7.8,9.6,12.3,13.8s8.2,6.4,11.2,6.4c2.1,0,4.2-0.5,6.4-1.6
		c2.2-1,4.8-2.6,7.9-4.8s5-3.5,5.6-3.9c3.7-2.2,7.7-4.5,11.9-6.9c4.2-2.4,9-5,14.2-7.8c5.2-2.8,9.2-5.1,12.1-6.7
		c10.4-5.2,16.1-9.2,17-11.8C197.5,1005.6,197.7,1004,197.7,1001.9z"/>
</g>
</svg>
