<?xml version="1.0" encoding="utf-8"?>
<!-- Generator: Adobe Illustrator 17.1.0, SVG Export Plug-In . SVG Version: 6.00 Build 0)  -->
<!DOCTYPE svg PUBLIC "-//W3C//DTD SVG 1.1//EN" "http://www.w3.org/Graphics/SVG/1.1/DTD/svg11.dtd">
<svg version="1.1" id="Layer_1" xmlns="http://www.w3.org/2000/svg" xmlns:xlink="http://www.w3.org/1999/xlink" x="0px" y="0px"
	 viewBox="0 0 600 600" enable-background="new 0 0 600 600" xml:space="preserve">
<g>
	<polygon fill="#EE1C4E" points="546.2,480.5 545.5,479.8 546,480.6 	"/>
	<polygon fill="#EE1C4E" points="356.9,479.3 356.9,480.7 319.8,502.3 319.9,502.4 319.6,502.4 319.8,502.3 268.4,425.5 
		267.7,426.4 319,502.9 507.5,502.9 544.9,481.3 358.3,481.3 	"/>
	<polygon fill="#EE1C4E" points="62.5,502.4 101,479.4 236.7,300.1 236.1,299.3 198.3,321.2 51.8,102.5 50.9,103 197.4,321.8 
		61.7,502.9 186.7,502.9 227.6,481.2 227.6,481.1 186.1,502.4 	"/>
	<polygon fill="#EE1C4E" points="410.2,82.1 371.7,103 330.1,158.6 340.9,174.7 	"/>
	<polygon fill="#8C1839" points="100.7,481.3 236.7,300.2 236.7,300.1 101,479.4 62.5,502.4 186.1,502.4 227.6,481.1 228.5,480.7 
		228.6,480.3 228.3,480.7 	"/>
	<polygon fill="#8C1839" points="319.9,502.4 319.8,502.3 319.6,502.4 	"/>
	<polygon fill="#8C1839" points="236.1,299.3 89.9,81.4 90.6,81.4 89.9,80.6 51.8,102.5 51.8,102.5 198.3,321.2 	"/>
	<polygon fill="#8C1839" points="356.9,480.7 356.9,479.3 295.5,388 268.4,425.5 319.8,502.3 	"/>
	<polygon points="546,480.6 545.5,479.8 400,262.6 535.8,81.4 410.8,81.4 410.2,82.1 340.9,174.7 330.1,158.6 278.4,81.4 90.6,81.4 
		89.9,81.4 236.1,299.3 236.7,300.1 236.7,300.2 100.7,481.3 228.3,480.7 228.6,480.3 267.7,426.4 268.4,425.5 295.5,388 
		356.9,479.3 358.3,481.3 544.9,481.3 546.5,481.3 	"/>
</g>
</svg>
